<svg width="134" height="50" viewBox="0 0 134 50" fill="none" xmlns="http://www.w3.org/2000/svg">
<g clip-path="url(#clip0)">
<path d="M36.5304 49.6433C36.3206 49.5802 36.122 49.4827 35.9421 49.3544C35.5707 49.1047 35.2963 48.7273 35.167 48.2886C35.0924 48.035 35.0557 47.771 35.0582 47.5059C35.0567 47.2642 35.0858 47.0234 35.1447 46.7896C35.2058 46.5697 35.2998 46.3611 35.4235 46.1715C35.542 45.9863 35.6878 45.8216 35.8556 45.6834C36.036 45.5412 36.2388 45.4328 36.4551 45.3627C36.6971 45.2858 36.9491 45.2478 37.2023 45.2501C37.5244 45.2499 37.8423 45.3254 38.1321 45.471C38.4219 45.6166 38.676 45.8285 38.8752 46.0906L38.3482 46.5527C38.2079 46.3725 38.0333 46.224 37.8352 46.1166C37.6428 46.0108 37.4285 45.9553 37.2107 45.9549C36.9573 45.949 36.7074 46.016 36.4885 46.1484C36.2781 46.2769 36.1078 46.4654 35.9978 46.6914C35.8793 46.9451 35.8201 47.2241 35.825 47.5059C35.8202 47.7797 35.8805 48.0505 36.0006 48.2944C36.1135 48.5169 36.2845 48.7021 36.4941 48.8288C36.712 48.958 36.9596 49.0239 37.2107 49.0194C37.4313 49.0207 37.6488 48.9651 37.8436 48.8576C38.0393 48.7503 38.2113 48.6018 38.3482 48.4215L38.8752 48.8894C38.6827 49.143 38.4391 49.3499 38.1614 49.496C37.8666 49.6492 37.5405 49.7265 37.2107 49.7213C36.9815 49.7282 36.7525 49.702 36.5304 49.6433Z" fill="white"/>
<path d="M41.178 49.5711C40.9227 49.4662 40.6911 49.3079 40.4977 49.1061C40.3092 48.8999 40.1614 48.6576 40.0627 48.3927C39.8546 47.8182 39.8546 47.185 40.0627 46.6106C40.1614 46.3457 40.3092 46.1033 40.4977 45.8971C40.6911 45.6953 40.9227 45.537 41.178 45.4321C41.7305 45.2108 42.3429 45.2108 42.8954 45.4321C43.1482 45.5351 43.3785 45.6892 43.573 45.8856C43.7676 46.0878 43.9195 46.3298 44.0191 46.5961C44.1282 46.887 44.1831 47.1967 44.1808 47.5088C44.1829 47.8219 44.128 48.1325 44.0191 48.4244C43.9202 48.6902 43.7681 48.9314 43.573 49.1321C43.3785 49.3284 43.1482 49.4826 42.8954 49.5856C42.3432 49.8089 41.7302 49.8089 41.178 49.5856V49.5711ZM42.5943 48.9299C42.7606 48.8551 42.9105 48.746 43.0349 48.6093C43.1564 48.4649 43.2509 48.2984 43.3137 48.1183C43.4587 47.7189 43.4587 47.2785 43.3137 46.8792C43.2509 46.6999 43.1563 46.5343 43.0349 46.3911C42.9074 46.2531 42.7542 46.1435 42.5845 46.069C42.4148 45.9945 42.2322 45.9567 42.0479 45.9578C41.8562 45.958 41.6665 45.9983 41.4902 46.0762C41.3227 46.1527 41.1726 46.2649 41.0497 46.4055C40.9288 46.5503 40.8343 46.7167 40.7709 46.8965C40.6334 47.2864 40.6334 47.714 40.7709 48.1038C40.8336 48.2849 40.9282 48.4523 41.0497 48.5977C41.172 48.7383 41.3223 48.8497 41.4902 48.9241C41.6661 49.0039 41.8559 49.0452 42.0479 49.0454C42.2358 49.047 42.422 49.0077 42.5943 48.9299Z" fill="white"/>
<path d="M49.1466 45.3081V49.707H48.4133L46.364 46.605V49.707H45.6447V45.3081H46.3584L48.4244 48.4564H48.4384V45.3081H49.1466Z" fill="white"/>
<path d="M50.8166 45.3081H53.4793V45.9782H51.5276V47.1855H53.0973V47.8556H51.5276V49.011H53.5964V49.707H50.8082L50.8166 45.3081Z" fill="white"/>
<path d="M56.1616 49.6433C55.9519 49.5802 55.7532 49.4827 55.5733 49.3544C55.2019 49.1047 54.9275 48.7273 54.7982 48.2886C54.7236 48.035 54.687 47.771 54.6895 47.5059C54.6879 47.2642 54.717 47.0234 54.7759 46.7896C54.837 46.5697 54.9311 46.3611 55.0547 46.1715C55.1732 45.9863 55.319 45.8216 55.4869 45.6834C55.6672 45.5412 55.87 45.4328 56.0863 45.3627C56.3274 45.2857 56.5785 45.2477 56.8307 45.2501C57.1528 45.2499 57.4707 45.3254 57.7605 45.471C58.0503 45.6166 58.3044 45.8285 58.5036 46.0906L57.9739 46.5527C57.8352 46.3719 57.6614 46.2233 57.4636 46.1166C57.2704 46.0105 57.055 45.955 56.8363 45.9549C56.5839 45.9494 56.3349 46.0164 56.117 46.1484C55.9065 46.2769 55.7362 46.4654 55.6263 46.6914C55.5078 46.9451 55.4486 47.2241 55.4534 47.5059C55.4486 47.7797 55.509 48.0505 55.6291 48.2944C55.7419 48.517 55.9129 48.7021 56.1226 48.8288C56.3397 48.9575 56.5862 49.0233 56.8363 49.0194C57.0579 49.0211 57.2764 48.9655 57.472 48.8576C57.6674 48.751 57.8386 48.6023 57.9739 48.4215L58.5036 48.8894C58.3111 49.143 58.0675 49.3499 57.7899 49.496C57.4942 49.6496 57.167 49.7269 56.8363 49.7213C56.609 49.7278 56.3819 49.7015 56.1616 49.6433Z" fill="white"/>
<path d="M60.7871 45.9782H59.5854V45.3081H62.7388V45.9782H61.526V49.707H60.7871V45.9782Z" fill="white"/>
<path d="M66.0037 48.7512H64.275L63.96 49.7072H63.2072L64.788 45.3198H65.4879L67.0771 49.7072H66.3243L66.0037 48.7512ZM65.7862 48.1071L65.1421 46.2065L64.5009 48.1071H65.7862Z" fill="white"/>
<path d="M71.8336 45.3081V49.707H71.1031L69.0566 46.605V49.707H68.3149V45.3081H69.0259L71.0919 48.4564H71.1031V45.3081H71.8336Z" fill="white"/>
<path d="M73.5066 45.3083H74.8533C75.1625 45.3048 75.4697 45.3606 75.7594 45.4729C76.0186 45.5678 76.2546 45.7204 76.4507 45.92C76.6467 46.1196 76.7981 46.3614 76.8942 46.6282C76.9999 46.9119 77.0529 47.2138 77.0503 47.5178C77.054 47.8208 77.002 48.1218 76.897 48.4046C76.8032 48.6631 76.6578 48.8984 76.4704 49.0949C76.2755 49.2949 76.0403 49.4478 75.7817 49.5426C75.4898 49.6533 75.1809 49.7081 74.87 49.7043H73.5066V45.3083ZM74.8254 49.0256C75.0342 49.0282 75.2416 48.989 75.436 48.91C75.6112 48.8418 75.7701 48.7353 75.9019 48.5977C76.0337 48.4602 76.1354 48.2948 76.1999 48.1128C76.2829 47.8884 76.319 47.6483 76.3061 47.4084C76.2931 47.1685 76.2313 46.9341 76.1247 46.7207C76.0091 46.4914 75.8319 46.3018 75.6144 46.1748C75.3865 46.0421 75.1287 45.9743 74.8672 45.9784H74.2231V49.0256H74.8254Z" fill="white"/>
<path d="M79.5652 49.5711C79.3096 49.4669 79.0779 49.3085 78.8849 49.1061C78.6964 48.8999 78.5486 48.6576 78.4499 48.3927C78.2418 47.8182 78.2418 47.185 78.4499 46.6106C78.5486 46.3457 78.6964 46.1033 78.8849 45.8971C79.0779 45.6947 79.3096 45.5363 79.5652 45.4321C80.1177 45.2108 80.7301 45.2108 81.2827 45.4321C81.5354 45.5351 81.7657 45.6892 81.9602 45.8856C82.1549 46.0878 82.3068 46.3298 82.4063 46.5961C82.5145 46.8872 82.5684 47.1969 82.5652 47.5088C82.5682 47.8217 82.5143 48.1323 82.4063 48.4244C82.3074 48.6902 82.1554 48.9314 81.9602 49.1321C81.7657 49.3284 81.5354 49.4826 81.2827 49.5856C80.7305 49.8089 80.1174 49.8089 79.5652 49.5856V49.5711ZM80.9816 48.9299C81.1474 48.8557 81.2965 48.7465 81.4193 48.6093C81.5466 48.4668 81.646 48.3 81.7121 48.1183C81.8534 47.7182 81.8534 47.2792 81.7121 46.8792C81.646 46.6983 81.5466 46.5325 81.4193 46.3911C81.2963 46.2547 81.1472 46.1465 80.9816 46.0733C80.8058 45.994 80.6156 45.9546 80.4239 45.9578C80.2322 45.9578 80.0425 45.9981 79.8663 46.0762C79.6988 46.1527 79.5487 46.2649 79.4258 46.4055C79.3039 46.5496 79.2093 46.7161 79.147 46.8965C79.0095 47.2864 79.0095 47.714 79.147 48.1038C79.2086 48.2854 79.3032 48.4531 79.4258 48.5977C79.548 48.7383 79.6984 48.8497 79.8663 48.9241C80.0419 49.0046 80.2319 49.0459 80.4239 49.0454C80.6156 49.0487 80.8058 49.0093 80.9816 48.9299Z" fill="white"/>
<path d="M90.4306 45.3081L89.912 49.707H89.2066L89.5467 46.8187L88.345 48.8694H87.832L87.1015 46.7581H87.0876L86.7502 49.707H86.0476L86.569 45.3197H87.3218L88.1889 47.8932H88.2056L89.6638 45.3197L90.4306 45.3081Z" fill="white"/>
<path d="M93.8377 48.7424H92.3182L91.9223 49.6956H91.1779L93.1128 45.3082H93.8433L94.7411 49.7071H94.0106L93.8377 48.7424ZM93.7206 48.1099L93.3805 46.2411L92.5719 48.1099H93.7206ZM93.9353 44.8345H93.2745L93.9827 43.9478H94.7021L93.9353 44.8345Z" fill="white"/>
<path d="M97.7578 47.2114L97.9669 47.3327C98.0227 47.3635 98.0868 47.4039 98.1593 47.454C98.221 47.4949 98.2806 47.5393 98.3377 47.5869C98.3895 47.6322 98.438 47.6814 98.4827 47.7342C98.529 47.787 98.5692 47.8451 98.6026 47.9075C98.6338 47.9716 98.6573 48.0395 98.6723 48.1097C98.6919 48.1889 98.7012 48.2705 98.7002 48.3523C98.7039 48.5603 98.6659 48.7668 98.5887 48.9588C98.5202 49.1298 98.4119 49.2806 98.2736 49.3979C98.1376 49.5111 97.9826 49.5973 97.8164 49.652C97.6365 49.7133 97.4481 49.7435 97.2587 49.7416C96.9686 49.7449 96.6819 49.6766 96.4223 49.5423C96.1835 49.4218 95.9811 49.236 95.8368 49.005L96.3554 48.5082C96.4077 48.6257 96.4838 48.7301 96.5784 48.8144C96.6662 48.8979 96.7684 48.9635 96.8795 49.0079C96.9867 49.049 97.0999 49.0705 97.2141 49.0715C97.4085 49.0774 97.5987 49.0131 97.7522 48.8895C97.8179 48.8392 97.8712 48.7734 97.9075 48.6975C97.9439 48.6217 97.9623 48.538 97.9613 48.4534C97.9623 48.4037 97.9528 48.3544 97.9334 48.309C97.9176 48.2689 97.897 48.2311 97.8721 48.1963C97.8382 48.1571 97.7998 48.1221 97.7578 48.0923L97.6212 48.0028C97.5821 47.9797 97.5236 47.9421 97.44 47.8959L97.2364 47.7775L97.1193 47.7053L96.966 47.6129L96.821 47.5204L96.676 47.4165L96.5478 47.3067C96.503 47.2707 96.4619 47.23 96.4251 47.1854L96.3303 47.0496C96.2986 47.0024 96.2733 46.9509 96.255 46.8966C96.2358 46.8411 96.2209 46.7841 96.2104 46.7261C96.1986 46.6614 96.1939 46.5955 96.1965 46.5297C96.1947 46.3474 96.2318 46.1669 96.3052 46.0012C96.3739 45.8464 96.4749 45.7093 96.6007 45.5997C96.7308 45.4893 96.8791 45.4041 97.0385 45.3484C97.2107 45.2874 97.3917 45.2571 97.5738 45.2589C97.8137 45.258 98.0505 45.3154 98.2652 45.4264C98.4835 45.5357 98.6744 45.6958 98.8229 45.8943L98.3126 46.3564C98.2603 46.2765 98.1985 46.2038 98.1286 46.1398C98.066 46.0838 97.9955 46.038 97.9195 46.0041C97.8564 45.9737 97.7899 45.9514 97.7215 45.9376C97.6611 45.9239 97.5994 45.9171 97.5375 45.9174C97.3774 45.9096 97.2202 45.9642 97.097 46.0705C97.0446 46.1157 97.0031 46.1729 96.9755 46.2375C96.9479 46.3022 96.9351 46.3725 96.9381 46.4431C96.9389 46.4831 96.9445 46.5229 96.9548 46.5615C96.9666 46.6014 96.9856 46.6386 97.0106 46.6713L97.0914 46.7637C97.1272 46.7996 97.1664 46.8316 97.2085 46.859L97.3479 46.9543L97.5264 47.0641L97.5626 47.0872L97.7578 47.2114Z" fill="white"/>
<path d="M61.7211 23.654L50.9338 39.6958C50.8526 39.8171 50.7442 39.9163 50.618 39.9847C50.4917 40.0531 50.3513 40.0888 50.2088 40.0886H46.5424C46.421 40.0886 46.3009 40.0626 46.1896 40.0123C46.0783 39.962 45.9781 39.8885 45.8955 39.7963C45.8128 39.7042 45.7494 39.5954 45.7091 39.4767C45.6688 39.3581 45.6526 39.2321 45.6614 39.1066L46.2887 30.0141H46.2552L40.5814 39.6409C40.5024 39.7751 40.3914 39.886 40.2591 39.9629C40.1267 40.0398 39.9775 40.0801 39.8258 40.08H36.0283C35.9115 40.0815 35.7955 40.0589 35.6871 40.0136C35.5787 39.9682 35.4801 39.901 35.3971 39.8157C35.3141 39.7305 35.2482 39.629 35.2034 39.5172C35.1586 39.4054 35.1357 39.2854 35.1361 39.1644L35.1027 23.1167C35.1023 22.9963 35.1249 22.8769 35.1691 22.7655C35.2134 22.654 35.2784 22.5528 35.3605 22.4674C35.4427 22.3821 35.5402 22.3144 35.6476 22.2682C35.755 22.222 35.8702 22.1982 35.9865 22.1982H40.3611C40.4802 22.1981 40.598 22.223 40.7075 22.2714C40.8171 22.3198 40.916 22.3906 40.9983 22.4797C41.0807 22.5688 41.1447 22.6742 41.1866 22.7897C41.2285 22.9051 41.2474 23.0282 41.2422 23.1514L41.2059 30.7737H41.2422L46.127 22.6344C46.2063 22.5023 46.3168 22.3932 46.448 22.3174C46.5792 22.2416 46.7268 22.2016 46.877 22.2011H50.4124C50.5352 22.1992 50.6571 22.2237 50.7703 22.2733C50.8835 22.3229 50.9854 22.3964 51.0696 22.489C51.1538 22.5817 51.2185 22.6916 51.2594 22.8116C51.3004 22.9316 51.3167 23.0591 51.3074 23.1861L50.8055 30.7824H50.8417L55.9942 22.6257C56.0737 22.4979 56.1832 22.393 56.3124 22.3208C56.4416 22.2485 56.5863 22.2114 56.7331 22.2127H61.0017C61.1627 22.2145 61.3202 22.2617 61.4572 22.3492C61.5943 22.4366 61.7058 22.5611 61.7797 22.7093C61.8537 22.8574 61.8873 23.0236 61.8769 23.19C61.8666 23.3565 61.8127 23.5169 61.7211 23.654Z" fill="white"/>
<path d="M32.7076 22.7993C32.7076 22.6516 32.6762 22.5058 32.6156 22.3722C32.555 22.2385 32.4667 22.1204 32.3571 22.0261C32.2474 21.9318 32.1191 21.8636 31.9811 21.8266C31.8432 21.7895 31.699 21.7843 31.5589 21.8115C31.0043 21.9332 30.4704 22.1406 29.9753 22.4267C29.0889 22.9478 28.3319 23.6756 27.7643 24.5525H27.7113V23.2412C27.7077 22.9359 27.589 22.6442 27.3806 22.4284C27.1723 22.2125 26.8907 22.0896 26.596 22.0859H22.3887C22.094 22.0896 21.8125 22.2125 21.6041 22.4284C21.3957 22.6442 21.2771 22.9359 21.2734 23.2412V39.0491C21.2734 39.3555 21.3909 39.6494 21.6001 39.866C21.8092 40.0827 22.0929 40.2044 22.3887 40.2044H26.5849C26.8806 40.2044 27.1643 40.0827 27.3735 39.866C27.5826 39.6494 27.7001 39.3555 27.7001 39.0491V32.2933C27.6775 31.817 27.7486 31.3409 27.9092 30.894C28.0697 30.4471 28.3164 30.0388 28.6342 29.6937C29.255 29.0506 30.1658 28.7281 31.3665 28.7262H31.5952C31.744 28.7281 31.8917 28.6992 32.0295 28.6411C32.1673 28.583 32.2926 28.4969 32.3978 28.3879C32.503 28.2788 32.5861 28.1491 32.6422 28.0063C32.6983 27.8635 32.7262 27.7105 32.7244 27.5564L32.7076 22.7993ZM16.5894 24.2897C15.7797 23.4624 14.8172 22.813 13.7594 22.3805C12.6338 21.9136 11.4309 21.6791 10.2184 21.6902C8.56919 21.6636 6.9416 22.0817 5.49533 22.9033C4.12501 23.6863 2.9954 24.8535 2.23598 26.2711C1.44204 27.7585 1.03829 29.4356 1.06496 31.135C1.0393 32.8534 1.45498 34.548 2.26944 36.0452C3.04478 37.469 4.19309 38.6366 5.58176 39.413C7.04061 40.2139 8.67072 40.6212 10.3216 40.5972C11.9643 40.626 13.5944 40.2963 15.1061 39.6296C16.0112 39.2248 16.8509 38.6783 17.5959 38.0093C17.7103 37.9027 17.8033 37.7737 17.8694 37.6297C17.9354 37.4857 17.9733 37.3296 17.9808 37.1703C17.9884 37.0111 17.9654 36.8519 17.9132 36.7019C17.861 36.5519 17.7806 36.4141 17.6767 36.2965L15.8561 34.24C15.6581 34.0167 15.3858 33.8795 15.094 33.8559C14.8022 33.8323 14.5126 33.9241 14.2836 34.1129C13.3646 34.9114 12.2069 35.3554 11.0075 35.3693C10.1419 35.3967 9.28763 35.1596 8.55113 34.6877C8.2275 34.4739 7.95214 34.1904 7.74381 33.8565C7.53548 33.5225 7.39907 33.146 7.34387 32.7525H17.7158C18.0812 32.7526 18.432 32.604 18.6928 32.3387C18.9535 32.0735 19.1033 31.7128 19.1098 31.3343C19.1098 31.2246 19.1098 31.1119 19.1098 30.9964C19.1199 29.7112 18.8898 28.4362 18.4323 27.2415C18.0166 26.1388 17.3897 25.1347 16.5894 24.2897ZM7.36338 29.1652C7.46752 28.4676 7.81466 27.8336 8.33924 27.3831C8.86092 26.9498 9.51375 26.7216 10.1822 26.739C10.5095 26.7368 10.8348 26.7924 11.1441 26.9036C11.4343 27.006 11.701 27.1692 11.9276 27.3831C12.1578 27.6047 12.351 27.8643 12.4992 28.1514C12.6643 28.4705 12.7863 28.8116 12.8616 29.1652H7.36338Z" fill="white"/>
<path d="M74.817 33.9423C74.6139 33.7613 74.3571 33.6578 74.0893 33.6488C73.8215 33.6399 73.5588 33.7261 73.3449 33.8932C72.6195 34.4479 71.7369 34.7375 70.8356 34.7164C70.3776 34.7327 69.9213 34.6514 69.4949 34.4775C69.0685 34.3036 68.6812 34.0409 68.3569 33.7055C68.0371 33.3608 67.7875 32.9531 67.6227 32.5066C67.458 32.06 67.3815 31.5837 67.3978 31.106C67.379 30.6382 67.4505 30.1711 67.608 29.7323C67.7655 29.2934 68.0059 28.8914 68.3151 28.5498C68.6318 28.2162 69.0126 27.9551 69.4328 27.7834C69.8531 27.6118 70.3034 27.5334 70.7547 27.5533C71.6908 27.54 72.6023 27.8636 73.3337 28.4689C73.5471 28.6516 73.8153 28.7515 74.0921 28.7515C74.3689 28.7515 74.6371 28.6516 74.8505 28.4689L77.41 26.2334C77.5349 26.1237 77.6364 25.9885 77.7082 25.8361C77.78 25.6837 77.8204 25.5175 77.827 25.3481C77.8335 25.1786 77.806 25.0096 77.7463 24.8518C77.6865 24.6939 77.5957 24.5507 77.4797 24.431C76.399 23.3577 75.0808 22.5752 73.6404 22.1521C72.5311 21.8105 71.3762 21.6545 70.2194 21.69C68.6048 21.7141 67.017 22.1201 65.5771 22.8771C64.1465 23.6307 62.9538 24.7922 62.1393 26.2247C61.3096 27.7164 60.8866 29.4135 60.9153 31.1349C60.8869 32.854 61.3038 34.5495 62.1226 36.0451C62.9002 37.4701 64.0515 38.6377 65.4433 39.4129C66.9021 40.2138 68.5322 40.621 70.1831 40.5971C71.8588 40.6297 73.5232 40.3063 75.0735 39.6468C75.9388 39.2728 76.7466 38.7697 77.4713 38.1535C77.5996 38.0399 77.7027 37.8989 77.7733 37.7401C77.8439 37.5812 77.8805 37.4085 77.8805 37.2336C77.8805 37.0588 77.8439 36.886 77.7733 36.7272C77.7027 36.5684 77.5996 36.4273 77.4713 36.3137L74.817 33.9423ZM92.7866 22.8858C91.2192 22.1007 89.5007 21.6929 87.7596 21.6929C86.0186 21.6929 84.3 22.1007 82.7326 22.8858C81.302 23.6393 80.1092 24.8008 79.2948 26.2334C78.4651 27.7251 78.042 29.4222 78.0708 31.1435C78.0419 32.8649 78.465 34.5621 79.2948 36.0537C80.1081 37.485 81.3014 38.644 82.7326 39.3926C84.3016 40.1723 86.0195 40.577 87.7596 40.577C89.4997 40.577 91.2177 40.1723 92.7866 39.3926C94.2131 38.6464 95.4054 37.4954 96.2244 36.0739C97.0604 34.5844 97.4875 32.8865 97.4596 31.1638C97.4872 29.4411 97.0601 27.7432 96.2244 26.2536C95.41 24.816 94.2177 23.648 92.7866 22.8858ZM90.0626 33.7315C89.7744 34.0623 89.4207 34.3248 89.0257 34.5012C88.6307 34.6777 88.2036 34.7639 87.7735 34.754C87.4227 34.7563 87.074 34.6977 86.7419 34.5807C86.4227 34.4691 86.1246 34.301 85.8609 34.0839C85.5967 33.867 85.3646 33.611 85.1722 33.3242C84.9726 33.0198 84.8211 32.6844 84.7233 32.3307C84.4873 31.4679 84.5156 30.5506 84.8042 29.7052C84.9466 29.2828 85.1716 28.8954 85.465 28.5671C85.7519 28.2493 86.0994 27.9966 86.4854 27.8248C86.8922 27.6434 87.3307 27.551 87.7735 27.5533C88.2022 27.542 88.6283 27.6259 89.0231 27.7992C89.4179 27.9726 89.7724 28.2315 90.0626 28.5585C90.6775 29.2706 90.9996 30.2034 90.9604 31.158C90.9969 32.1043 90.6747 33.028 90.0626 33.7315ZM133.321 27.2558C132.914 26.1503 132.287 25.1457 131.481 24.3073C130.675 23.4688 129.708 22.8153 128.642 22.389C127.516 21.9192 126.312 21.6817 125.098 21.69C123.449 21.6643 121.822 22.0823 120.375 22.9031C119.002 23.6854 117.87 24.8526 117.108 26.2709C116.312 27.7576 115.907 29.435 115.934 31.1349C115.909 32.8535 116.326 34.5481 117.141 36.0451C117.916 37.4689 119.065 38.6364 120.453 39.4129C121.912 40.2142 123.542 40.6215 125.193 40.5971C126.837 40.6262 128.468 40.2965 129.981 39.6295C130.885 39.2253 131.724 38.6787 132.468 38.0091C132.583 37.903 132.676 37.7742 132.743 37.6303C132.809 37.4864 132.847 37.3302 132.855 37.1709C132.863 37.0115 132.84 36.8521 132.788 36.702C132.736 36.5519 132.655 36.414 132.551 36.2963L130.731 34.2398C130.533 34.0166 130.26 33.8793 129.968 33.8557C129.677 33.8321 129.387 33.924 129.158 34.1128C128.239 34.9112 127.081 35.3552 125.882 35.3692C125.019 35.3948 124.168 35.1578 123.434 34.6875C123.11 34.4738 122.835 34.1903 122.627 33.8563C122.418 33.5224 122.282 33.1458 122.227 32.7524H132.599C132.964 32.7524 133.315 32.6038 133.576 32.3386C133.836 32.0734 133.986 31.7127 133.993 31.3342C133.993 31.2244 133.993 31.1118 133.993 30.9962C134.004 29.7162 133.776 28.446 133.321 27.2558ZM122.243 29.165C122.344 28.4724 122.688 27.8423 123.208 27.3949C123.728 26.9475 124.389 26.714 125.065 26.7388C125.391 26.7364 125.716 26.7921 126.024 26.9035C126.315 27.0055 126.583 27.1687 126.81 27.3829C127.041 27.6045 127.234 27.8641 127.382 28.1512C127.547 28.4703 127.669 28.8115 127.744 29.165H122.243Z" fill="white"/>
<path d="M114.395 27.4668C113.99 26.3809 113.368 25.3964 112.568 24.5785C111.74 23.7536 110.756 23.1153 109.677 22.704C108.473 22.2417 107.197 22.0126 105.913 22.0281H100.49C100.026 22.0288 99.5802 22.2206 99.2519 22.5612C98.9236 22.9018 98.7393 23.3635 98.7393 23.8448V38.4425C98.7393 38.9236 98.9237 39.385 99.2521 39.7251C99.5805 40.0653 100.026 40.2564 100.49 40.2564H105.986C107.285 40.276 108.577 40.0529 109.8 39.5979C110.869 39.1962 111.841 38.5575 112.647 37.7262C113.426 36.9033 114.028 35.919 114.414 34.8379C114.835 33.6617 115.044 32.4154 115.03 31.161C115.045 29.8991 114.829 28.6458 114.395 27.4668ZM108.261 32.7207C108.085 33.1649 107.796 33.5512 107.424 33.8385C107.071 34.1143 106.64 34.2606 106.198 34.2544H104.561V28.0445H106.382C106.676 28.0476 106.964 28.1302 107.218 28.2842C107.489 28.4491 107.724 28.6715 107.907 28.937C108.111 29.2411 108.265 29.5777 108.364 29.9335C108.477 30.3339 108.534 30.7494 108.531 31.1668C108.541 31.7018 108.446 32.2333 108.252 32.7294L108.261 32.7207Z" fill="white"/>
</g>
<path d="M2.11435 8.36349V12.4999H1.26721V2.34368H4.68333C5.72561 2.34368 6.5475 2.6134 7.149 3.15283C7.75508 3.69227 8.05812 4.43399 8.05812 5.378C8.05812 6.33131 7.76656 7.06838 7.18343 7.58922C6.6049 8.1054 5.76464 8.36349 4.66267 8.36349H2.11435ZM2.11435 7.63804H4.68333C5.50522 7.63804 6.13197 7.44041 6.56357 7.04513C6.99518 6.64986 7.21098 6.0988 7.21098 5.39195C7.21098 4.68976 6.99518 4.13172 6.56357 3.71784C6.13656 3.29932 5.52818 3.0854 4.73843 3.0761H2.11435V7.63804Z" fill="white"/>
<path d="M9.2152 8.61461C9.2152 7.88916 9.35294 7.23579 9.62844 6.65451C9.90852 6.07322 10.3011 5.62214 10.8062 5.30127C11.3158 4.97575 11.8921 4.81299 12.5349 4.81299C13.5267 4.81299 14.3302 5.16641 14.9455 5.87326C15.5607 6.57545 15.8684 7.50784 15.8684 8.67041V8.8448C15.8684 9.57489 15.7283 10.2329 15.4482 10.8188C15.1727 11.4001 14.7825 11.8489 14.2774 12.1651C13.7723 12.4813 13.1961 12.6394 12.5487 12.6394C11.5615 12.6394 10.758 12.2883 10.1381 11.5861C9.52283 10.8793 9.2152 9.94459 9.2152 8.78202V8.61461ZM10.0417 8.8448C10.0417 9.74695 10.2713 10.4887 10.7304 11.07C11.1942 11.6466 11.8002 11.9349 12.5487 11.9349C13.2925 11.9349 13.894 11.6466 14.3531 11.07C14.8169 10.4887 15.0488 9.7237 15.0488 8.77504V8.61461C15.0488 8.03797 14.9432 7.51016 14.732 7.03118C14.5207 6.5522 14.2246 6.1825 13.8435 5.92208C13.4624 5.65702 13.0262 5.52448 12.5349 5.52448C11.8002 5.52448 11.201 5.81745 10.7373 6.40339C10.2736 6.98468 10.0417 7.74733 10.0417 8.69134V8.8448Z" fill="white"/>
<path d="M19.3602 10.763L19.4842 11.4118L19.6495 10.7282L21.4402 4.9525H22.1427L23.9128 10.6793L24.1056 11.4745L24.264 10.7421L25.793 4.9525H26.647L24.4775 12.4999H23.775L21.8603 6.515L21.7708 6.10345L21.6813 6.52197L19.801 12.4999H19.0985L16.9359 4.9525H17.783L19.3602 10.763Z" fill="white"/>
<path d="M31.0963 12.6394C30.4626 12.6394 29.8887 12.4813 29.3744 12.1651C28.8648 11.8489 28.4676 11.4094 28.1829 10.8467C27.8982 10.2794 27.7559 9.64465 27.7559 8.94245V8.64251C27.7559 7.91706 27.8936 7.2637 28.1691 6.68241C28.4492 6.10112 28.8372 5.64539 29.3331 5.31522C29.829 4.9804 30.3662 4.81299 30.9447 4.81299C31.8493 4.81299 32.5656 5.12688 33.0936 5.75467C33.6262 6.37781 33.8925 7.23114 33.8925 8.31466V8.78202H28.5755V8.94245C28.5755 9.79811 28.8166 10.5119 29.2987 11.0839C29.7854 11.6513 30.396 11.9349 31.1307 11.9349C31.5715 11.9349 31.9595 11.8535 32.2947 11.6908C32.6344 11.528 32.9421 11.2676 33.2176 10.9095L33.7341 11.3071C33.128 12.1953 32.2487 12.6394 31.0963 12.6394ZM30.9447 5.52448C30.3249 5.52448 29.8014 5.75467 29.3744 6.21505C28.952 6.67543 28.6949 7.29392 28.603 8.07052H33.0729V7.97984C33.05 7.25439 32.8456 6.66381 32.46 6.20808C32.0743 5.75235 31.5692 5.52448 30.9447 5.52448Z" fill="white"/>
<path d="M38.9409 5.66399C38.7665 5.63144 38.5805 5.61516 38.3831 5.61516C37.8688 5.61516 37.4326 5.76165 37.0745 6.05462C36.7209 6.34294 36.4684 6.76379 36.3169 7.31717V12.4999H35.4973V4.9525H36.3031L36.3169 6.15227C36.7531 5.25942 37.4533 4.81299 38.4175 4.81299C38.6471 4.81299 38.8284 4.84322 38.9616 4.90367L38.9409 5.66399Z" fill="white"/>
<path d="M42.9976 12.6394C42.3639 12.6394 41.79 12.4813 41.2757 12.1651C40.7661 11.8489 40.3689 11.4094 40.0842 10.8467C39.7996 10.2794 39.6572 9.64465 39.6572 8.94245V8.64251C39.6572 7.91706 39.795 7.2637 40.0705 6.68241C40.3505 6.10112 40.7385 5.64539 41.2344 5.31522C41.7303 4.9804 42.2675 4.81299 42.8461 4.81299C43.7506 4.81299 44.4669 5.12688 44.9949 5.75467C45.5275 6.37781 45.7938 7.23114 45.7938 8.31466V8.78202H40.4768V8.94245C40.4768 9.79811 40.7179 10.5119 41.2 11.0839C41.6867 11.6513 42.2974 11.9349 43.032 11.9349C43.4728 11.9349 43.8608 11.8535 44.196 11.6908C44.5357 11.528 44.8434 11.2676 45.1189 10.9095L45.6354 11.3071C45.0293 12.1953 44.1501 12.6394 42.9976 12.6394ZM42.8461 5.52448C42.2262 5.52448 41.7028 5.75467 41.2757 6.21505C40.8533 6.67543 40.5962 7.29392 40.5044 8.07052H44.9742V7.97984C44.9513 7.25439 44.747 6.66381 44.3613 6.20808C43.9756 5.75235 43.4705 5.52448 42.8461 5.52448Z" fill="white"/>
<path d="M47.068 8.65646C47.068 7.48458 47.3251 6.5522 47.8394 5.85931C48.3582 5.16176 49.0607 4.81299 49.9469 4.81299C50.9524 4.81299 51.7192 5.21524 52.2473 6.01974V1.78564H53.0669V12.4999H52.2955L52.261 11.4955C51.733 12.2581 50.957 12.6394 49.9331 12.6394C49.0745 12.6394 48.3812 12.2907 47.8531 11.5931C47.3297 10.8909 47.068 9.94459 47.068 8.75412V8.65646ZM47.9014 8.80294C47.9014 9.76556 48.0919 10.5259 48.473 11.0839C48.8541 11.6373 49.3913 11.914 50.0846 11.914C51.0994 11.914 51.8203 11.4606 52.2473 10.5538V7.01025C51.8203 6.02904 51.104 5.53843 50.0984 5.53843C49.4051 5.53843 48.8656 5.81513 48.4799 6.36851C48.0942 6.91725 47.9014 7.72872 47.9014 8.80294Z" fill="white"/>
<path d="M64.6651 8.80294C64.6651 9.97947 64.408 10.9142 63.8937 11.6071C63.3795 12.2953 62.6885 12.6394 61.8207 12.6394C60.783 12.6394 59.9978 12.2488 59.4652 11.4676L59.4308 12.4999H58.6594V1.78564H59.479V6.04764C60.0024 5.22454 60.7784 4.81299 61.8069 4.81299C62.6885 4.81299 63.3841 5.15479 63.8937 5.83838C64.408 6.51732 64.6651 7.46366 64.6651 8.67739V8.80294ZM63.8386 8.65646C63.8386 7.6613 63.6481 6.894 63.267 6.35456C62.8859 5.81048 62.3487 5.53843 61.6554 5.53843C61.1273 5.53843 60.6797 5.67097 60.3123 5.93604C59.945 6.19645 59.6672 6.5801 59.479 7.08698V10.491C59.8922 11.4397 60.6223 11.914 61.6691 11.914C62.3487 11.914 62.879 11.642 63.2601 11.0979C63.6458 10.5538 63.8386 9.73998 63.8386 8.65646Z" fill="white"/>
<path d="M68.77 11.3002L70.9464 4.9525H71.8348L68.6529 13.7834L68.4876 14.174C68.0789 15.0901 67.4476 15.5482 66.5936 15.5482C66.3961 15.5482 66.1849 15.5156 65.9599 15.4505L65.9531 14.76L66.3801 14.8018C66.7841 14.8018 67.1101 14.6995 67.3581 14.4949C67.6106 14.2949 67.8241 13.9485 67.9986 13.4556L68.3636 12.4372L65.5536 4.9525H66.4558L68.77 11.3002Z" fill="white"/>
<defs>
<clipPath id="clip0">
<rect width="134" height="28.5714" fill="white" transform="translate(0 21.4287)"/>
</clipPath>
</defs>
</svg>
