<svg width="60" height="60" viewBox="0 0 60 60" fill="none" xmlns="http://www.w3.org/2000/svg">
<circle cx="30" cy="30" r="30" fill="#8B8ADA"/>
<path d="M39.6833 17.4502C39.55 17.4502 39.4167 17.4168 39.3 17.3502C36.1 15.7002 33.3333 15.0002 30.0167 15.0002C26.7167 15.0002 23.5833 15.7835 20.7333 17.3502C20.3333 17.5668 19.8333 17.4168 19.6 17.0168C19.3833 16.6168 19.5333 16.1002 19.9333 15.8835C23.0333 14.2002 26.4333 13.3335 30.0167 13.3335C33.5667 13.3335 36.6667 14.1168 40.0667 15.8668C40.4833 16.0835 40.6333 16.5835 40.4167 16.9835C40.2667 17.2835 39.9833 17.4502 39.6833 17.4502ZM15.8333 26.2002C15.6667 26.2002 15.5 26.1502 15.35 26.0502C14.9667 25.7835 14.8833 25.2668 15.15 24.8835C16.8 22.5502 18.9 20.7168 21.4 19.4335C26.6333 16.7335 33.3333 16.7168 38.5833 19.4168C41.0833 20.7002 43.1833 22.5168 44.8333 24.8335C45.1 25.2002 45.0167 25.7335 44.6333 26.0002C44.25 26.2668 43.7333 26.1835 43.4667 25.8002C41.9667 23.7002 40.0667 22.0502 37.8167 20.9002C33.0333 18.4502 26.9167 18.4502 22.15 20.9168C19.8833 22.0835 17.9833 23.7502 16.4833 25.8502C16.35 26.0835 16.1 26.2002 15.8333 26.2002ZM26.25 46.3168C26.0333 46.3168 25.8167 46.2335 25.6667 46.0668C24.2167 44.6168 23.4333 43.6835 22.3167 41.6668C21.1667 39.6168 20.5667 37.1168 20.5667 34.4335C20.5667 29.4835 24.8 25.4502 30 25.4502C35.2 25.4502 39.4333 29.4835 39.4333 34.4335C39.4333 34.9002 39.0667 35.2668 38.6 35.2668C38.1333 35.2668 37.7667 34.9002 37.7667 34.4335C37.7667 30.4002 34.2833 27.1168 30 27.1168C25.7167 27.1168 22.2333 30.4002 22.2333 34.4335C22.2333 36.8335 22.7667 39.0502 23.7833 40.8502C24.85 42.7668 25.5833 43.5835 26.8667 44.8835C27.1833 45.2168 27.1833 45.7335 26.8667 46.0668C26.6833 46.2335 26.4667 46.3168 26.25 46.3168ZM38.2 43.2335C36.2167 43.2335 34.4667 42.7335 33.0333 41.7502C30.55 40.0668 29.0667 37.3335 29.0667 34.4335C29.0667 33.9668 29.4333 33.6002 29.9 33.6002C30.3667 33.6002 30.7333 33.9668 30.7333 34.4335C30.7333 36.7835 31.9333 39.0002 33.9667 40.3668C35.15 41.1668 36.5333 41.5502 38.2 41.5502C38.6 41.5502 39.2667 41.5002 39.9333 41.3835C40.3833 41.3002 40.8167 41.6002 40.9 42.0668C40.9833 42.5168 40.6833 42.9502 40.2167 43.0335C39.2667 43.2168 38.4333 43.2335 38.2 43.2335ZM34.85 46.6668C34.7833 46.6668 34.7 46.6502 34.6333 46.6335C31.9833 45.9002 30.25 44.9168 28.4333 43.1335C26.1 40.8168 24.8167 37.7335 24.8167 34.4335C24.8167 31.7335 27.1167 29.5335 29.95 29.5335C32.7833 29.5335 35.0833 31.7335 35.0833 34.4335C35.0833 36.2168 36.6333 37.6668 38.55 37.6668C40.4667 37.6668 42.0167 36.2168 42.0167 34.4335C42.0167 28.1502 36.6 23.0502 29.9333 23.0502C25.2 23.0502 20.8667 25.6835 18.9167 29.7668C18.2667 31.1168 17.9333 32.7002 17.9333 34.4335C17.9333 35.7335 18.05 37.7835 19.05 40.4502C19.2167 40.8835 19 41.3668 18.5667 41.5168C18.1333 41.6835 17.65 41.4502 17.5 41.0335C16.6833 38.8502 16.2833 36.6835 16.2833 34.4335C16.2833 32.4335 16.6667 30.6168 17.4167 29.0335C19.6333 24.3835 24.55 21.3668 29.9333 21.3668C37.5167 21.3668 43.6833 27.2168 43.6833 34.4168C43.6833 37.1168 41.3833 39.3168 38.55 39.3168C35.7167 39.3168 33.4167 37.1168 33.4167 34.4168C33.4167 32.6335 31.8667 31.1835 29.95 31.1835C28.0333 31.1835 26.4833 32.6335 26.4833 34.4168C26.4833 37.2668 27.5833 39.9335 29.6 41.9335C31.1833 43.5002 32.7 44.3668 35.05 45.0168C35.5 45.1335 35.75 45.6002 35.6333 46.0335C35.55 46.4168 35.2 46.6668 34.85 46.6668Z" fill="white"/>
</svg>
