<svg width="60" height="60" viewBox="0 0 60 60" fill="none" xmlns="http://www.w3.org/2000/svg">
<circle cx="30" cy="30" r="30" fill="#8B8ADA"/>
<path d="M30 19.9998V24.9998L36.6667 18.3332L30 11.6665V16.6665C22.6333 16.6665 16.6667 22.6332 16.6667 29.9998C16.6667 32.6165 17.4333 35.0498 18.7333 37.0998L21.1667 34.6665C20.4167 33.2832 20 31.6832 20 29.9998C20 24.4832 24.4833 19.9998 30 19.9998ZM41.2667 22.8998L38.8333 25.3332C39.5667 26.7332 40 28.3165 40 29.9998C40 35.5165 35.5167 39.9998 30 39.9998V34.9998L23.3333 41.6665L30 48.3332V43.3332C37.3667 43.3332 43.3333 37.3665 43.3333 29.9998C43.3333 27.3832 42.5667 24.9498 41.2667 22.8998Z" fill="white"/>
</svg>
