<svg width="60" height="60" viewBox="0 0 60 60" fill="none" xmlns="http://www.w3.org/2000/svg">
<circle cx="30" cy="30" r="30" fill="#8B8ADA"/>
<path d="M25 28.7333V22.5C25 20.2 26.8667 18.3333 29.1667 18.3333C31.4667 18.3333 33.3333 20.2 33.3333 22.5V28.7333C35.35 27.3833 36.6667 25.1 36.6667 22.5C36.6667 18.35 33.3167 15 29.1667 15C25.0167 15 21.6667 18.35 21.6667 22.5C21.6667 25.1 22.9833 27.3833 25 28.7333ZM41.4 36.45L33.8333 32.6833C33.55 32.5667 33.25 32.5 32.9333 32.5H31.6667V22.5C31.6667 21.1167 30.55 20 29.1667 20C27.7833 20 26.6667 21.1167 26.6667 22.5V40.4L20.95 39.2C20.8167 39.1833 20.7 39.15 20.55 39.15C20.0333 39.15 19.5667 39.3667 19.2333 39.7L17.9167 41.0333L26.15 49.2667C26.6 49.7167 27.2333 50 27.9167 50H39.2333C40.4833 50 41.45 49.0833 41.6333 47.8667L42.8833 39.0833C42.9 38.9667 42.9167 38.85 42.9167 38.75C42.9167 37.7167 42.2833 36.8167 41.4 36.45Z" fill="white"/>
</svg>
