<svg width="60" height="60" viewBox="0 0 60 60" fill="none" xmlns="http://www.w3.org/2000/svg">
<circle cx="30" cy="30" r="30" fill="#8B8ADA"/>
<path d="M41.6667 15.0001H34.7C34 13.0667 32.1667 11.6667 30 11.6667C27.8333 11.6667 26 13.0667 25.3 15.0001H18.3333C16.5 15.0001 15 16.5001 15 18.3334V41.6667C15 43.5001 16.5 45.0001 18.3333 45.0001H41.6667C43.5 45.0001 45 43.5001 45 41.6667V18.3334C45 16.5001 43.5 15.0001 41.6667 15.0001ZM30 15.0001C30.9167 15.0001 31.6667 15.7501 31.6667 16.6667C31.6667 17.5834 30.9167 18.3334 30 18.3334C29.0833 18.3334 28.3333 17.5834 28.3333 16.6667C28.3333 15.7501 29.0833 15.0001 30 15.0001ZM33.3333 38.3334H21.6667V35.0001H33.3333V38.3334ZM38.3333 31.6667H21.6667V28.3334H38.3333V31.6667ZM38.3333 25.0001H21.6667V21.6667H38.3333V25.0001Z" fill="white"/>
</svg>
