<svg width="60" height="60" viewBox="0 0 60 60" fill="none" xmlns="http://www.w3.org/2000/svg">
<circle cx="30" cy="30" r="30" fill="#8B8ADA"/>
<path d="M25 29.5833C23.85 29.5833 22.9166 30.5166 22.9166 31.6666C22.9166 32.8166 23.85 33.7499 25 33.7499C26.15 33.7499 27.0833 32.8166 27.0833 31.6666C27.0833 30.5166 26.15 29.5833 25 29.5833ZM35 29.5833C33.85 29.5833 32.9166 30.5166 32.9166 31.6666C32.9166 32.8166 33.85 33.7499 35 33.7499C36.15 33.7499 37.0833 32.8166 37.0833 31.6666C37.0833 30.5166 36.15 29.5833 35 29.5833ZM30 13.3333C20.8 13.3333 13.3333 20.7999 13.3333 29.9999C13.3333 39.1999 20.8 46.6666 30 46.6666C39.2 46.6666 46.6666 39.1999 46.6666 29.9999C46.6666 20.7999 39.2 13.3333 30 13.3333ZM30 43.3333C22.65 43.3333 16.6666 37.3499 16.6666 29.9999C16.6666 29.5166 16.7 29.0333 16.75 28.5666C20.6833 26.8166 23.8 23.5999 25.4333 19.6166C28.45 23.8833 33.4166 26.6666 39.0333 26.6666C40.3333 26.6666 41.5833 26.5166 42.7833 26.2333C43.1333 27.4166 43.3333 28.6833 43.3333 29.9999C43.3333 37.3499 37.35 43.3333 30 43.3333Z" fill="white"/>
</svg>
