<svg width="300" height="150" viewBox="0 0 300 150" fill="none" xmlns="http://www.w3.org/2000/svg">
<path d="M140 70.8493C141.957 69.5826 144.166 68.5872 146.421 67.6504C147.575 67.1777 148.717 66.7027 149.852 66.2338C151.025 65.7186 152.186 65.1908 153.309 64.5604C154.44 63.9558 155.524 63.2464 156.567 62.4794C157.074 62.0713 157.592 61.6843 158.058 61.2243C158.291 61.0021 158.54 60.7919 158.763 60.5523L159.428 59.8326C161.173 57.8943 162.367 55.4886 162.964 53.0921C163.112 52.4899 163.199 51.8876 163.312 51.2919C163.369 50.6747 163.442 50.0345 163.471 49.45V47.7803C163.446 47.2239 163.413 46.6731 163.367 46.1322C163.312 45.4864 163.235 44.6567 163.145 44.032C163.145 44.032 162.977 43.3895 162.456 43.3591C162.03 43.2809 160.498 44.4031 159.612 45.0999C159.675 45.5323 159.753 45.9094 159.779 46.3788C159.808 46.8678 159.817 47.3634 159.819 47.8585C159.802 48.3606 159.785 48.8655 159.769 49.3733C159.712 49.83 159.658 50.2867 159.603 50.7472C159.5 51.2142 159.42 51.6953 159.296 52.16L159.081 52.8497L158.975 53.196L158.834 53.5283L158.554 54.197C158.445 54.4183 158.325 54.6256 158.212 54.8437C158.006 55.2883 157.707 55.6776 157.446 56.096C157.31 56.3019 157.138 56.4881 156.988 56.6884C156.829 56.8812 156.687 57.089 156.501 57.2654C156.455 57.3164 156.407 57.3627 156.359 57.4133C155.986 56.2724 154.808 52.4464 155.013 49.7734C155.492 45.3722 161.69 41.9781 162.487 42.0684C163.291 42.1625 163.578 43.7507 163.578 43.7507C163.578 43.7507 166.214 38.7623 164.384 37.5367C163.716 37.0889 162.587 37.0421 161.432 37.1586C161.115 36.2391 160.771 35.3471 160.386 34.4954C159.601 32.8066 158.772 31.2333 157.419 29.8636C157.062 29.5262 156.665 29.1953 156.133 28.9225C155.99 28.8579 155.864 28.799 155.695 28.7381C155.502 28.6768 155.249 28.6202 155.095 28.5992L154.956 28.5907L154.889 28.5861L154.852 28.5833C154.573 28.5716 154.744 28.5818 154.669 28.5795C154.524 28.5898 154.37 28.5978 154.236 28.6202C153.138 28.8051 152.429 29.252 151.781 29.6544C150.514 30.4958 149.579 31.3681 148.734 32.1271C148.652 32.2015 148.571 32.2717 148.496 32.3447C148.228 32.5398 147.922 32.8108 147.565 33.1866C147.437 33.2984 147.316 33.4028 147.197 33.5057C146.064 34.3106 144.971 33.4131 144.398 32.7748C142.946 30.9048 140.301 27.7143 139.432 27.5313C138.37 27.3081 136.951 29.2075 137.533 30.653C137.533 30.653 137.628 30.7696 137.792 30.8828C137.955 30.9961 137.873 29.7672 138.437 29.8772C139.001 29.9876 139.067 31.8594 139.577 32.2511C139.577 32.2511 138.532 32.9989 137.666 32.1575C137.666 32.1575 137.446 31.9619 137.227 31.7649C137.006 31.5679 136.79 32.4289 137.338 32.8871C137.883 33.3461 138.163 33.6615 139.145 34.0111C139.668 34.1964 141.351 34.7945 143.144 35.6204C146.045 37.4572 147.554 36.0435 147.554 36.0435C147.656 35.9845 147.752 35.9246 147.85 35.8595C148.678 35.3064 149.443 34.6457 150.309 33.939C151.172 33.2399 152.12 32.4645 153.152 31.8576C153.655 31.5665 154.221 31.318 154.591 31.2979C154.616 31.2951 154.634 31.2969 154.656 31.2979L154.695 31.3012L154.833 31.318C154.861 31.3363 154.791 31.3414 154.776 31.3283C154.781 31.3334 154.828 31.3634 154.852 31.3723C154.995 31.4579 155.194 31.6292 155.393 31.8393C156.207 32.7467 156.948 34.1726 157.547 35.6906C157.783 36.2835 158.063 37.1361 158.263 37.7819C157.754 37.9223 157.429 38.0271 157.429 38.0271C157.065 37.1825 156.401 36.4178 155.217 36.6644C154.101 36.9775 152.368 38.0711 149.979 39.7169C147.499 41.3253 145.074 41.0843 145.074 41.0843C145.801 42.7381 146.908 43.0933 146.908 43.0933C144.517 44.9506 143.219 48.2778 143.219 48.2778H143.223C142.143 50.5843 140.979 53.7047 140.312 57.3908C139.228 57.3117 138.013 56.9603 138.013 56.9603C134.381 55.8119 132.499 54.9148 132.499 54.9148C132.499 54.9148 124.332 51.5998 129.474 43.9136C129.474 43.9136 133.793 39.2218 125.545 35.3322C125.545 35.3322 119.371 32.311 111.612 31.9844C103.852 31.6573 82.7413 31.1336 70.7701 29.4991C70.7701 29.4991 85.9482 43.5696 91.0509 48.0447C91.0509 48.0447 93.6874 50.4894 96.8172 50.1941C96.8172 50.1941 102.007 50.0958 109.177 48.5272C109.177 48.5272 105.362 51.7631 100.957 52.3364C100.957 52.3364 105.465 61.2454 111.763 64.8267C111.763 64.8267 113.897 66.0064 116.034 65.6021C116.034 65.6021 120.67 64.9647 124.514 63.0587C124.514 63.0587 122.571 65.9442 116.433 67.5118C116.433 67.5118 122.587 72.424 131.731 74.5177C131.731 74.5177 131.238 77.7171 134.452 79.6802C134.454 78.1986 134.742 76.7849 135.408 75.5322C136.351 73.6491 138.04 72.1016 140 70.8493Z" fill="#8794BA"/>
<path d="M189.226 31.9844C181.465 32.311 175.289 35.3321 175.289 35.3321C167.042 39.2218 171.362 43.9136 171.362 43.9136C176.501 51.5998 168.336 54.9144 168.336 54.9144C168.336 54.9144 166.171 55.7955 163.056 56.7328C162.253 58.5967 161.043 60.1766 160.329 61.0161C160.329 61.0161 159.474 62.0465 158.465 62.8608C158.243 63.0419 158.027 63.216 157.813 63.3854L157.454 63.6689C156.272 64.5403 155.15 65.2586 154.017 65.8651C152.845 66.5244 151.614 67.0799 150.458 67.5909L146.992 69.0219C144.908 69.8895 142.717 70.8619 140.81 72.0922C140.772 72.1151 140.738 72.1385 140.7 72.1647C139.642 72.8798 138.937 73.461 138.458 73.9182C147.878 73.8807 150.418 79.6797 150.418 79.6797C150.418 79.6797 153.902 71.6874 167.91 74.5176C172.468 73.5981 179.49 71.6027 184.403 67.5118C178.265 65.9442 176.321 63.0587 176.321 63.0587C180.165 64.9647 184.803 65.6016 184.803 65.6016C186.941 66.0064 189.075 64.8267 189.075 64.8267C195.371 61.2449 199.877 52.3364 199.877 52.3364C195.474 51.7631 191.659 48.5272 191.659 48.5272C198.825 50.0958 204.017 50.1941 204.017 50.1941C207.147 50.4893 209.783 48.0442 209.783 48.0442C214.889 43.5696 230.065 29.4986 230.065 29.4986C218.095 31.1336 196.985 31.6573 189.226 31.9844Z" fill="#8794BA"/>
<path d="M101.681 88.1761V100.045C101.681 100.161 101.641 100.259 101.559 100.34C101.478 100.422 101.379 100.463 101.263 100.463H98.6372C98.5223 100.463 98.4221 100.422 98.3421 100.34C98.2602 100.259 98.2197 100.161 98.2197 100.045V94.4496C98.2197 94.3345 98.1675 94.2704 98.063 94.2587C97.9571 94.247 97.8696 94.2882 97.8009 94.3804L94.8565 99.0899C94.7977 99.1826 94.704 99.2298 94.576 99.2298C94.4475 99.2298 94.3482 99.1826 94.2781 99.0899L91.3361 94.3804C91.2773 94.2882 91.1954 94.247 91.0895 94.2587C90.9836 94.2704 90.9323 94.3345 90.9323 94.4496V100.045C90.9323 100.161 90.8919 100.259 90.8109 100.34C90.729 100.422 90.6307 100.463 90.5149 100.463H87.8887C87.7729 100.463 87.6736 100.422 87.5927 100.34C87.5127 100.259 87.4717 100.161 87.4717 100.045V88.1761C87.4717 88.0601 87.5127 87.9623 87.5927 87.8818C87.6746 87.7994 87.7739 87.7592 87.8887 87.7592H90.3238C90.4396 87.7592 90.561 87.7943 90.6895 87.8626C90.8166 87.9323 90.9093 88.0142 90.9672 88.1069L94.3308 93.0074C94.4005 93.0995 94.4833 93.1463 94.576 93.1463C94.6702 93.1463 94.7464 93.0995 94.8043 93.0074L98.1675 88.1069C98.2376 88.0142 98.336 87.9323 98.4645 87.8626C98.5915 87.7943 98.7134 87.7592 98.8283 87.7592H101.263C101.379 87.7592 101.477 87.7994 101.559 87.8818C101.641 87.9623 101.681 88.0601 101.681 88.1761Z" fill="#8794BA"/>
<path d="M107.117 94.1015C107.117 94.5428 107.199 94.9597 107.362 95.3537C107.524 95.7468 107.749 96.095 108.035 96.3954C108.321 96.6982 108.655 96.9378 109.039 97.1175C109.424 97.2967 109.832 97.387 110.263 97.387C110.694 97.387 111.102 97.2967 111.485 97.1175C111.871 96.9378 112.208 96.6982 112.499 96.3954C112.792 96.095 113.018 95.7468 113.182 95.3537C113.345 94.9597 113.426 94.5428 113.426 94.1015C113.426 93.6728 113.345 93.2596 113.182 92.8595C113.018 92.4599 112.792 92.1117 112.499 91.8164C112.208 91.5212 111.871 91.2844 111.485 91.1047C111.102 90.9255 110.694 90.8351 110.263 90.8351C109.832 90.8351 109.424 90.9255 109.039 91.1047C108.655 91.2844 108.321 91.5212 108.035 91.8164C107.749 92.1117 107.524 92.4599 107.362 92.8595C107.199 93.2596 107.117 93.6728 107.117 94.1015ZM103.656 94.1015C103.656 93.1983 103.831 92.3476 104.181 91.5478C104.53 90.749 105.002 90.0499 105.597 89.4528C106.19 88.8571 106.89 88.3844 107.695 88.0372C108.498 87.69 109.355 87.5164 110.263 87.5164C111.172 87.5164 112.028 87.69 112.832 88.0372C113.636 88.3844 114.338 88.8571 114.938 89.4528C115.538 90.0499 116.013 90.749 116.363 91.5478C116.713 92.3476 116.887 93.1983 116.887 94.1015C116.887 95.0056 116.713 95.8573 116.363 96.6561C116.013 97.4568 115.538 98.154 114.938 98.7511C114.338 99.3478 113.636 99.8195 112.832 100.168C112.028 100.515 111.172 100.688 110.263 100.688C109.355 100.688 108.498 100.515 107.695 100.168C106.89 99.8195 106.19 99.3478 105.597 98.7511C105.002 98.154 104.53 97.4568 104.181 96.6561C103.831 95.8573 103.656 95.0056 103.656 94.1015Z" fill="#8794BA"/>
<path d="M122.374 100.081L117.096 88.2459C117.037 88.1191 117.035 88.0021 117.087 87.8987C117.14 87.7943 117.241 87.7424 117.394 87.7424H120.243C120.358 87.7424 120.471 87.7798 120.583 87.8556C120.694 87.9314 120.778 88.0213 120.836 88.1242L123.912 95.1099C123.971 95.2143 124.046 95.2671 124.14 95.2671C124.233 95.2671 124.308 95.2143 124.368 95.1099L127.425 88.1242C127.484 88.0213 127.568 87.9314 127.679 87.8556C127.789 87.7798 127.903 87.7424 128.019 87.7424H130.921C131.049 87.7424 131.143 87.7915 131.201 87.8893C131.259 87.989 131.265 88.084 131.219 88.1766L125.888 100.081C125.829 100.185 125.744 100.275 125.635 100.35C125.523 100.425 125.409 100.463 125.294 100.463H122.969C122.852 100.463 122.738 100.425 122.628 100.35C122.518 100.275 122.433 100.185 122.374 100.081Z" fill="#8794BA"/>
<path d="M135.817 100.463H133.19C133.064 100.463 132.962 100.422 132.886 100.34C132.811 100.259 132.773 100.161 132.773 100.045V88.1762C132.773 88.0601 132.811 87.9623 132.886 87.8818C132.962 87.7995 133.064 87.7597 133.19 87.7597H135.817C135.934 87.7597 136.031 87.7995 136.113 87.8818C136.194 87.9623 136.234 88.0601 136.234 88.1762V100.045C136.234 100.161 136.194 100.259 136.113 100.34C136.031 100.422 135.934 100.463 135.817 100.463Z" fill="#8794BA"/>
<path d="M153.274 88.1761V100.045C153.274 100.161 153.234 100.259 153.153 100.34C153.07 100.422 152.973 100.463 152.857 100.463H150.232C150.115 100.463 150.016 100.422 149.935 100.34C149.854 100.259 149.814 100.161 149.814 100.045V94.4496C149.814 94.3345 149.761 94.2704 149.656 94.2587C149.552 94.247 149.463 94.2882 149.394 94.3804L146.449 99.0899C146.392 99.1826 146.298 99.2298 146.17 99.2298C146.042 99.2298 145.941 99.1826 145.871 99.0899L142.929 94.3804C142.87 94.2882 142.788 94.247 142.683 94.2587C142.578 94.2704 142.525 94.3345 142.525 94.4496V100.045C142.525 100.161 142.486 100.259 142.405 100.34C142.322 100.422 142.225 100.463 142.109 100.463H139.483C139.367 100.463 139.268 100.422 139.187 100.34C139.105 100.259 139.066 100.161 139.066 100.045V88.1761C139.066 88.0601 139.105 87.9623 139.187 87.8818C139.268 87.7994 139.367 87.7592 139.483 87.7592H141.917C142.033 87.7592 142.155 87.7943 142.282 87.8626C142.41 87.9323 142.502 88.0142 142.561 88.1069L145.925 93.0074C145.995 93.0995 146.076 93.1463 146.17 93.1463C146.264 93.1463 146.34 93.0995 146.398 93.0074L149.762 88.1069C149.831 88.0142 149.929 87.9323 150.057 87.8626C150.184 87.7943 150.306 87.7592 150.422 87.7592H152.857C152.973 87.7592 153.07 87.7994 153.153 87.8818C153.234 87.9623 153.274 88.0601 153.274 88.1761Z" fill="#8794BA"/>
<path d="M159.674 100.463H157.047C156.92 100.463 156.819 100.422 156.743 100.34C156.667 100.259 156.631 100.161 156.631 100.045V88.1762C156.631 88.0601 156.667 87.9623 156.743 87.8818C156.819 87.7995 156.92 87.7597 157.047 87.7597H159.674C159.789 87.7597 159.888 87.7995 159.969 87.8818C160.05 87.9623 160.092 88.0601 160.092 88.1762V100.045C160.092 100.161 160.05 100.259 159.969 100.34C159.888 100.422 159.789 100.463 159.674 100.463Z" fill="#8794BA"/>
<path d="M166.313 91.3559V92.0864C166.313 92.2025 166.353 92.3012 166.435 92.3812C166.517 92.4627 166.616 92.5029 166.733 92.5029H171.469C171.585 92.5029 171.685 92.545 171.767 92.6255C171.848 92.706 171.888 92.8047 171.888 92.9208V95.3182C171.888 95.4342 171.848 95.5339 171.767 95.6144C171.685 95.6953 171.585 95.7346 171.469 95.7346H166.733C166.616 95.7346 166.517 95.7768 166.435 95.8572C166.353 95.9387 166.313 96.0374 166.313 96.1525V96.8133C166.313 96.9293 166.353 97.0281 166.435 97.1086C166.517 97.19 166.616 97.2312 166.733 97.2312H172.167C172.284 97.2312 172.382 97.2714 172.465 97.3519C172.546 97.4329 172.587 97.5316 172.587 97.6477V100.045C172.587 100.161 172.546 100.259 172.465 100.34C172.382 100.422 172.284 100.463 172.167 100.463H163.272C163.154 100.463 163.056 100.422 162.974 100.34C162.893 100.259 162.852 100.161 162.852 100.045V88.1588C162.852 88.0437 162.893 87.945 162.974 87.8626C163.056 87.7821 163.154 87.7419 163.272 87.7419H172.167C172.284 87.7419 172.382 87.7821 172.465 87.8626C172.546 87.945 172.587 88.0437 172.587 88.1588V90.5225C172.587 90.6386 172.546 90.7364 172.465 90.8187C172.382 90.8987 172.284 90.939 172.167 90.939H166.733C166.616 90.939 166.517 90.9802 166.435 91.0616C166.353 91.1421 166.313 91.2408 166.313 91.3559Z" fill="#8794BA"/>
<path d="M187.268 88.1588V100.045C187.268 100.161 187.228 100.259 187.147 100.34C187.065 100.422 186.966 100.463 186.85 100.463H184.268C184.151 100.463 184.03 100.428 183.903 100.359C183.774 100.289 183.675 100.208 183.605 100.115L179.054 93.7379C178.983 93.6447 178.911 93.6073 178.834 93.6246C178.759 93.6419 178.722 93.7093 178.722 93.8244V100.045C178.722 100.161 178.681 100.259 178.599 100.34C178.516 100.422 178.417 100.463 178.3 100.463H175.684C175.566 100.463 175.467 100.422 175.385 100.34C175.302 100.259 175.261 100.161 175.261 100.045V88.1588C175.261 88.0437 175.302 87.945 175.384 87.8626C175.466 87.7821 175.564 87.7419 175.681 87.7419H178.302C178.419 87.7419 178.541 87.7742 178.669 87.8378C178.798 87.901 178.897 87.9796 178.966 88.0718L183.511 94.4496C183.58 94.5432 183.653 94.5835 183.729 94.5713C183.805 94.5605 183.843 94.4964 183.843 94.3804V88.1588C183.843 88.0437 183.884 87.945 183.965 87.8626C184.047 87.7821 184.146 87.7419 184.262 87.7419H186.849C186.965 87.7419 187.065 87.7821 187.146 87.8626C187.228 87.945 187.268 88.0437 187.268 88.1588Z" fill="#8794BA"/>
<path d="M198.891 90.939H196.444C196.327 90.939 196.229 90.9802 196.148 91.0616C196.065 91.1421 196.025 91.2408 196.025 91.3559V100.045C196.025 100.161 195.987 100.259 195.912 100.34C195.836 100.422 195.733 100.463 195.605 100.463H192.984C192.867 100.463 192.769 100.422 192.687 100.34C192.605 100.259 192.565 100.161 192.565 100.045V91.3559C192.565 91.2408 192.526 91.1421 192.451 91.0616C192.375 90.9802 192.272 90.939 192.145 90.939H189.663C189.546 90.939 189.448 90.8987 189.366 90.8183C189.284 90.7359 189.243 90.6381 189.243 90.522V88.1588C189.243 88.0437 189.284 87.945 189.366 87.8626C189.448 87.7821 189.546 87.7419 189.663 87.7419H198.891C199.019 87.7419 199.121 87.7821 199.197 87.8626C199.273 87.945 199.31 88.0437 199.31 88.1588V90.522C199.31 90.6381 199.273 90.7359 199.197 90.8183C199.121 90.8987 199.019 90.939 198.891 90.939Z" fill="#8794BA"/>
<path d="M203.715 94.1015C203.715 94.5428 203.797 94.9597 203.96 95.3537C204.122 95.7468 204.348 96.095 204.633 96.3954C204.918 96.6982 205.254 96.9378 205.638 97.1175C206.022 97.2967 206.43 97.387 206.862 97.387C207.292 97.387 207.701 97.2967 208.085 97.1175C208.469 96.9378 208.807 96.6982 209.099 96.3954C209.389 96.095 209.616 95.7468 209.78 95.3537C209.942 94.9597 210.025 94.5428 210.025 94.1015C210.025 93.6728 209.942 93.2596 209.78 92.8595C209.616 92.4599 209.389 92.1117 209.099 91.8164C208.807 91.5212 208.469 91.2844 208.085 91.1047C207.701 90.9255 207.292 90.8351 206.862 90.8351C206.43 90.8351 206.022 90.9255 205.638 91.1047C205.254 91.2844 204.918 91.5212 204.633 91.8164C204.348 92.1117 204.122 92.4599 203.96 92.8595C203.797 93.2596 203.715 93.6728 203.715 94.1015ZM200.254 94.1015C200.254 93.1983 200.43 92.3476 200.779 91.5478C201.129 90.749 201.6 90.0499 202.195 89.4528C202.789 88.8571 203.488 88.3844 204.291 88.0372C205.097 87.69 205.952 87.5164 206.862 87.5164C207.77 87.5164 208.627 87.69 209.431 88.0372C210.235 88.3844 210.936 88.8571 211.537 89.4528C212.137 90.0499 212.612 90.749 212.961 91.5478C213.311 92.3476 213.485 93.1983 213.485 94.1015C213.485 95.0056 213.311 95.8573 212.961 96.6561C212.612 97.4568 212.137 98.154 211.537 98.7511C210.936 99.3478 210.235 99.8195 209.431 100.168C208.627 100.515 207.77 100.688 206.862 100.688C205.952 100.688 205.097 100.515 204.291 100.168C203.488 99.8195 202.789 99.3478 202.195 98.7511C201.6 98.154 201.129 97.4568 200.779 96.6561C200.43 95.8573 200.254 95.0056 200.254 94.1015Z" fill="#8794BA"/>
<path d="M92.4188 117.691C91.9674 118.415 91.47 119.072 90.9268 119.663C90.3828 120.255 89.7724 120.758 89.0975 121.173C88.4212 121.589 87.6719 121.911 86.8492 122.141C86.0247 122.371 85.1154 122.487 84.1219 122.487C82.8789 122.487 81.7136 122.255 80.626 121.792C79.5388 121.328 78.5871 120.703 77.772 119.914C76.9564 119.126 76.3158 118.201 75.849 117.133C75.383 116.068 75.1505 114.933 75.1505 113.729C75.1505 112.524 75.383 111.388 75.849 110.321C76.3158 109.257 76.9564 108.33 77.772 107.542C78.5871 106.754 79.5388 106.128 80.626 105.665C81.7136 105.201 82.8789 104.969 84.1219 104.969C85.1469 104.969 86.0717 105.085 86.8953 105.317C87.718 105.549 88.4645 105.873 89.1328 106.29C89.8001 106.707 90.4021 107.215 90.9381 107.808C91.4747 108.403 91.9674 109.055 92.4188 109.765C92.496 109.889 92.5105 110.02 92.4649 110.159C92.4188 110.299 92.3251 110.399 92.1844 110.46L88.8763 111.759C88.72 111.821 88.5652 111.821 88.4089 111.759C88.2546 111.697 88.1378 111.604 88.0597 111.481C87.6093 110.77 87.0652 110.226 86.4289 109.847C85.7912 109.469 85.0227 109.279 84.1219 109.279C83.5317 109.279 82.9768 109.404 82.4553 109.65C81.9353 109.899 81.4811 110.228 81.0924 110.639C80.7031 111.049 80.401 111.525 80.1831 112.067C79.9661 112.609 79.8579 113.167 79.8579 113.74C79.8579 114.329 79.9661 114.89 80.1831 115.424C80.401 115.959 80.7031 116.428 81.0924 116.831C81.4811 117.233 81.9353 117.557 82.4553 117.805C82.9768 118.053 83.5317 118.177 84.1219 118.177C84.9761 118.177 85.7489 117.972 86.4402 117.563C87.1316 117.154 87.6804 116.625 88.0837 115.975C88.1609 115.853 88.2738 115.759 88.4212 115.697C88.568 115.636 88.72 115.636 88.8763 115.697L92.1844 116.995C92.3251 117.057 92.4188 117.154 92.4649 117.285C92.5105 117.417 92.496 117.551 92.4188 117.691Z" fill="#8794BA"/>
<path d="M98.2935 122.186H94.7915C94.622 122.186 94.486 122.131 94.3858 122.024C94.2855 121.916 94.2352 121.785 94.2352 121.629V105.803C94.2352 105.65 94.2855 105.518 94.3858 105.409C94.486 105.302 94.622 105.248 94.7915 105.248H98.2935C98.4479 105.248 98.5792 105.302 98.687 105.409C98.7952 105.518 98.8498 105.65 98.8498 105.803V121.629C98.8498 121.785 98.7952 121.916 98.687 122.024C98.5792 122.131 98.4479 122.186 98.2935 122.186Z" fill="#8794BA"/>
<path d="M101.855 105.803C101.855 105.65 101.909 105.518 102.017 105.409C102.126 105.301 102.257 105.248 102.412 105.248H105.913C106.067 105.248 106.199 105.301 106.307 105.409C106.415 105.518 106.47 105.65 106.47 105.803V115.187C106.47 115.791 106.567 116.288 106.762 116.682C106.957 117.076 107.2 117.385 107.488 117.609C107.776 117.833 108.084 117.991 108.412 118.084C108.74 118.176 109.036 118.223 109.301 118.223C109.566 118.223 109.863 118.176 110.191 118.084C110.518 117.991 110.823 117.833 111.104 117.609C111.383 117.385 111.621 117.076 111.817 116.682C112.012 116.288 112.11 115.791 112.11 115.187V105.803C112.11 105.65 112.162 105.518 112.271 105.409C112.379 105.301 112.511 105.248 112.666 105.248H116.168C116.321 105.248 116.453 105.301 116.56 105.409C116.669 105.518 116.724 105.65 116.724 105.803V115.187C116.724 116.284 116.548 117.281 116.199 118.176C115.85 119.073 115.351 119.836 114.7 120.471C114.048 121.103 113.265 121.595 112.35 121.941C111.434 122.289 110.418 122.463 109.301 122.463C108.184 122.463 107.168 122.289 106.254 121.941C105.337 121.595 104.554 121.103 103.904 120.471C103.252 119.836 102.747 119.073 102.391 118.176C102.034 117.281 101.855 116.284 101.855 115.187V105.803Z" fill="#8794BA"/>
<path d="M125.322 117.922H127.07C127.505 117.922 127.955 117.868 128.422 117.76C128.888 117.651 129.307 117.447 129.679 117.146C130.053 116.844 130.359 116.419 130.6 115.872C130.84 115.323 130.961 114.609 130.961 113.729C130.961 112.848 130.84 112.133 130.6 111.585C130.359 111.037 130.049 110.612 129.668 110.31C129.288 110.009 128.868 109.805 128.41 109.696C127.951 109.588 127.505 109.534 127.07 109.534H125.322C125.167 109.534 125.034 109.588 124.926 109.696C124.818 109.805 124.763 109.936 124.763 110.09V117.367C124.763 117.521 124.818 117.651 124.926 117.76C125.034 117.868 125.167 117.922 125.322 117.922ZM120.148 121.629V105.78C120.148 105.627 120.203 105.494 120.312 105.388C120.421 105.279 120.552 105.224 120.709 105.224H127.07C129.509 105.224 131.505 105.935 133.058 107.356C133.899 108.129 134.535 109.049 134.97 110.114C135.404 111.18 135.622 112.376 135.622 113.705C135.622 115.034 135.404 116.235 134.97 117.308C134.535 118.382 133.899 119.305 133.058 120.076C132.282 120.772 131.393 121.297 130.39 121.652C129.388 122.007 128.282 122.186 127.07 122.186H120.709C120.552 122.186 120.421 122.131 120.312 122.024C120.203 121.916 120.148 121.785 120.148 121.629Z" fill="#8794BA"/>
<path d="M142.893 115.836H144.967C145.122 115.836 145.235 115.787 145.305 115.687C145.375 115.586 145.371 115.466 145.293 115.326C145.138 114.941 144.952 114.489 144.734 113.971C144.516 113.453 144.315 112.972 144.128 112.524C144.065 112.384 143.996 112.315 143.919 112.315C143.841 112.315 143.771 112.384 143.709 112.524L142.544 115.326C142.481 115.466 142.481 115.586 142.544 115.687C142.606 115.787 142.722 115.836 142.893 115.836ZM141.518 105.757C141.58 105.619 141.684 105.499 141.833 105.398C141.98 105.298 142.139 105.248 142.31 105.248H145.573C145.728 105.248 145.879 105.298 146.028 105.398C146.176 105.499 146.279 105.619 146.342 105.757L153.147 121.513C153.209 121.652 153.198 121.799 153.112 121.954C153.026 122.108 152.859 122.186 152.611 122.186H148.625C148.454 122.186 148.296 122.136 148.148 122.035C148 121.935 147.887 121.815 147.811 121.676L147.181 120.286C147.103 120.146 146.991 120.027 146.843 119.926C146.696 119.826 146.543 119.776 146.389 119.776H141.472C141.301 119.776 141.141 119.826 140.993 119.926C140.846 120.027 140.741 120.146 140.68 120.286L140.027 121.676C139.965 121.815 139.86 121.935 139.712 122.035C139.564 122.136 139.414 122.186 139.258 122.186H135.25C135.173 122.186 135.092 122.17 135.005 122.139C134.92 122.108 134.85 122.062 134.795 122C134.742 121.939 134.706 121.861 134.69 121.768C134.675 121.676 134.698 121.568 134.76 121.443L141.518 105.757Z" fill="#8794BA"/>
<path d="M159.881 117.922H161.63C162.064 117.922 162.515 117.868 162.982 117.76C163.447 117.651 163.867 117.447 164.238 117.146C164.612 116.844 164.918 116.419 165.16 115.872C165.4 115.323 165.52 114.609 165.52 113.729C165.52 112.848 165.4 112.133 165.16 111.585C164.918 111.037 164.608 110.612 164.227 110.31C163.847 110.009 163.426 109.805 162.969 109.696C162.511 109.588 162.064 109.534 161.63 109.534H159.881C159.726 109.534 159.594 109.588 159.485 109.696C159.377 109.805 159.322 109.936 159.322 110.09V117.367C159.322 117.521 159.377 117.651 159.485 117.76C159.594 117.868 159.726 117.922 159.881 117.922ZM154.708 121.629V105.78C154.708 105.627 154.763 105.494 154.871 105.388C154.979 105.279 155.111 105.224 155.267 105.224H161.63C164.068 105.224 166.065 105.935 167.618 107.356C168.457 108.129 169.093 109.049 169.529 110.114C169.964 111.18 170.182 112.376 170.182 113.705C170.182 115.034 169.964 116.235 169.529 117.308C169.093 118.382 168.457 119.305 167.618 120.076C166.841 120.772 165.951 121.297 164.95 121.652C163.949 122.007 162.841 122.186 161.63 122.186H155.267C155.111 122.186 154.979 122.131 154.871 122.024C154.763 121.916 154.708 121.785 154.708 121.629Z" fill="#8794BA"/>
<path d="M177.452 115.836H179.526C179.681 115.836 179.794 115.787 179.865 115.687C179.934 115.586 179.929 115.466 179.852 115.326C179.697 114.941 179.511 114.489 179.294 113.971C179.075 113.453 178.874 112.972 178.687 112.524C178.625 112.384 178.555 112.315 178.478 112.315C178.4 112.315 178.33 112.384 178.267 112.524L177.103 115.326C177.04 115.466 177.04 115.586 177.103 115.687C177.165 115.787 177.281 115.836 177.452 115.836ZM176.077 105.757C176.14 105.619 176.244 105.499 176.393 105.398C176.539 105.298 176.698 105.248 176.869 105.248H180.132C180.288 105.248 180.439 105.298 180.586 105.398C180.735 105.499 180.839 105.619 180.901 105.757L187.706 121.513C187.767 121.652 187.757 121.799 187.67 121.954C187.585 122.108 187.418 122.186 187.17 122.186H183.184C183.014 122.186 182.854 122.136 182.707 122.035C182.559 121.935 182.446 121.815 182.37 121.676L181.741 120.286C181.662 120.146 181.55 120.027 181.402 119.926C181.254 119.826 181.102 119.776 180.948 119.776H176.031C175.86 119.776 175.701 119.826 175.553 119.926C175.405 120.027 175.3 120.146 175.24 120.286L174.586 121.676C174.523 121.815 174.419 121.935 174.27 122.035C174.124 122.136 173.973 122.186 173.817 122.186H169.809C169.732 122.186 169.651 122.17 169.564 122.139C169.479 122.108 169.409 122.062 169.355 122C169.301 121.939 169.265 121.861 169.25 121.768C169.234 121.676 169.257 121.568 169.32 121.443L176.077 105.757Z" fill="#8794BA"/>
<path d="M205.253 105.779V121.629C205.253 121.784 205.199 121.916 205.09 122.024C204.982 122.13 204.85 122.186 204.695 122.186H201.253C201.097 122.186 200.934 122.139 200.764 122.047C200.594 121.954 200.463 121.846 200.369 121.722L194.301 113.218C194.206 113.094 194.109 113.044 194.009 113.067C193.908 113.09 193.858 113.18 193.858 113.334V121.629C193.858 121.784 193.803 121.916 193.693 122.024C193.584 122.13 193.451 122.186 193.296 122.186H189.806C189.65 122.186 189.516 122.13 189.407 122.024C189.298 121.916 189.243 121.784 189.243 121.629V105.779C189.243 105.627 189.298 105.494 189.406 105.387C189.515 105.279 189.647 105.224 189.804 105.224H193.299C193.454 105.224 193.616 105.267 193.788 105.351C193.958 105.437 194.091 105.542 194.183 105.664L200.243 114.168C200.336 114.292 200.433 114.345 200.535 114.329C200.635 114.315 200.685 114.23 200.685 114.076V105.779C200.685 105.627 200.739 105.494 200.849 105.387C200.957 105.279 201.09 105.224 201.245 105.224H204.693C204.849 105.224 204.982 105.279 205.09 105.387C205.199 105.494 205.253 105.627 205.253 105.779Z" fill="#8794BA"/>
<path d="M211.966 113.705C211.966 114.292 212.074 114.848 212.291 115.373C212.508 115.898 212.807 116.362 213.189 116.763C213.569 117.165 214.016 117.486 214.528 117.725C215.041 117.965 215.585 118.084 216.16 118.084C216.734 118.084 217.277 117.965 217.79 117.725C218.304 117.486 218.753 117.165 219.143 116.763C219.53 116.362 219.834 115.898 220.051 115.373C220.268 114.848 220.378 114.292 220.378 113.705C220.378 113.133 220.268 112.582 220.051 112.049C219.834 111.515 219.53 111.052 219.143 110.657C218.753 110.264 218.304 109.947 217.79 109.708C217.277 109.468 216.734 109.348 216.16 109.348C215.585 109.348 215.041 109.468 214.528 109.708C214.016 109.947 213.569 110.264 213.189 110.657C212.807 111.052 212.508 111.515 212.291 112.049C212.074 112.582 211.966 113.133 211.966 113.705ZM207.351 113.705C207.351 112.5 207.583 111.365 208.049 110.299C208.515 109.232 209.146 108.302 209.938 107.506C210.73 106.711 211.662 106.082 212.733 105.619C213.806 105.155 214.949 104.923 216.16 104.923C217.372 104.923 218.512 105.155 219.584 105.619C220.657 106.082 221.593 106.711 222.393 107.506C223.193 108.302 223.826 109.232 224.292 110.299C224.759 111.365 224.991 112.5 224.991 113.705C224.991 114.909 224.759 116.044 224.292 117.111C223.826 118.177 223.193 119.107 222.393 119.903C221.593 120.698 220.657 121.328 219.584 121.791C218.512 122.255 217.372 122.487 216.16 122.487C214.949 122.487 213.806 122.255 212.733 121.791C211.662 121.328 210.73 120.698 209.938 119.903C209.146 119.107 208.515 118.177 208.049 117.111C207.583 116.044 207.351 114.909 207.351 113.705Z" fill="#8794BA"/>
</svg>
