<svg width="300" height="150" viewBox="0 0 300 150" fill="none" xmlns="http://www.w3.org/2000/svg">
<path d="M189.436 125H110.564C104.754 125 100 120.246 100 114.436V35.5641C100 29.7539 104.754 25 110.564 25H189.436C195.246 25 200 29.7539 200 35.5641V114.436C200 120.246 195.246 125 189.436 125Z" fill="#8794BA"/>
<path d="M150.033 123.192C176.684 123.192 198.245 101.631 198.245 74.9799C198.245 48.3284 176.684 26.7676 150.033 26.7676C123.456 26.7676 101.82 48.3284 101.82 74.9799C101.82 101.631 123.381 123.192 150.033 123.192Z" fill="white"/>
<path d="M150.033 117.952C173.764 117.952 193.005 98.7115 193.005 74.9797C193.005 51.2478 173.764 32.0078 150.033 32.0078C126.301 32.0078 107.061 51.2478 107.061 74.9797C107.061 98.7115 126.301 117.952 150.033 117.952Z" fill="#8794BA"/>
<path d="M150.033 112.187C170.545 112.187 187.24 95.5674 187.24 74.9798C187.24 54.4671 170.62 37.7725 150.033 37.7725C129.52 37.7725 112.825 54.3922 112.825 74.9798C112.825 95.5674 129.445 112.187 150.033 112.187Z" fill="white"/>
<path d="M121.397 97.0549V53.0122H136.598C139.131 53.0122 140.301 56.3252 140.301 59.6381V73.2796C140.301 77.1772 139.131 81.2697 135.429 81.2697H128.218V97.2498H121.397V97.0549Z" fill="#8794BA"/>
<path d="M153.942 97.0549L152.968 91.2085H145.173L144.198 97.0549H136.988L144.783 53.0122H153.552L161.153 97.0549H153.942Z" fill="#8794BA"/>
<path d="M168.363 53.0122L172.845 68.4077V53.0122H179.861V97.0549H173.04L168.948 83.6083V97.0549H161.932V53.0122H168.363Z" fill="#8794BA"/>
<path d="M131.616 74.1567C132.814 74.1567 132.964 72.884 132.964 71.6861V62.7025C132.964 61.1303 132.44 60.4565 131.616 60.4565H128.247V74.1567H131.616Z" fill="white"/>
<path d="M149.134 75.2793L147.188 84.6373H151.081L149.134 75.2793Z" fill="white"/>
</svg>
