<svg width="300" height="150" viewBox="0 0 300 150" fill="none" xmlns="http://www.w3.org/2000/svg">
<path d="M47.606 81.6354C47.606 72.8136 47.606 63.9919 47.606 55.1701C47.606 51.0927 46.0849 49.7251 41.9338 50.1556C40.5931 50.3076 39.3297 50.5862 37.8859 50.8141V81.61H26V42.0261C28.6041 41.6716 31.2855 41.3423 33.9927 40.9878C34.7146 41.8488 35.4365 42.6593 36.2358 43.5456C39.4329 42.1274 42.6042 40.8611 46.1364 40.9878C49.5913 41.1144 52.84 41.7982 55.7276 43.9002C61.2775 41.3152 66.4949 40.4952 72.1513 41.4689C77.0243 42.33 79.5768 45.597 80.4792 50.2316C80.737 51.6245 80.8659 53.0934 80.8659 54.4863C80.8917 63.097 80.8917 71.7077 80.8917 80.3184C80.8917 80.749 80.8402 81.1542 80.8144 81.6607H68.9285V79.9132V55.5247C68.9285 54.537 68.9027 53.4986 68.6706 52.5362C68.2839 50.9154 67.3815 50.105 65.7056 50.1303C63.6688 50.1556 61.6577 50.4342 59.4662 50.6621V81.6607C55.4698 81.6354 51.654 81.6354 47.606 81.6354Z" fill="#8794BA"/>
<path d="M194.156 41.9247C196.915 41.5702 199.596 41.2409 202.252 40.937C202.999 41.7728 203.721 42.5579 204.237 43.1657C206.944 42.4566 209.445 41.5955 212.023 41.1903C216.922 40.4305 221.46 41.4435 225.198 44.8372C227.931 47.2937 229.478 50.3835 229.814 53.9544C229.891 54.9421 229.968 55.9805 229.968 56.9682C229.968 65.1737 229.968 73.3792 229.968 81.5847H217.85C217.846 72.8872 217.848 63.8489 217.824 56.3603C217.804 53.5862 217.283 50.7871 214.421 50.2315C211.637 49.725 208.878 50.2062 205.99 50.7634V81.6353H194.13C194.156 68.3647 194.156 55.246 194.156 41.9247Z" fill="#8794BA"/>
<path d="M240.952 52.0553C239.998 49.7 239.095 47.446 238.115 45.0907C238.296 44.9641 238.425 44.8122 238.631 44.7362C242.602 43.2166 246.598 41.7984 250.801 41.1146C255.828 40.3042 260.315 41.6211 264.156 44.8881C266.889 47.1928 268.101 50.2571 268.101 53.7268C268.125 60.722 268.101 66.6999 268.101 72.9742C269.261 73.0248 270.267 73.0502 271.453 73.1261C271.968 75.2028 272.458 77.2795 273.026 79.5082C270.808 80.6478 268.462 81.3316 266.116 82.0407C261.981 82.8091 259.635 81.2842 257.401 79.3056C254.823 80.6985 252.09 81.8381 249.151 82.2687C244.252 83.0031 240.049 81.5342 236.904 77.786C233.861 74.2151 233.191 70.0617 234.893 65.7564C236.749 61.0205 240.616 58.5386 245.618 58.0068C248.145 57.7535 250.749 58.0574 253.379 58.1334C254.281 58.1587 255.184 58.2854 256.292 58.3613C256.421 56.4872 256.576 54.6891 256.163 52.9417C255.622 50.865 253.224 49.4974 250.775 49.8773C247.217 50.2473 243.902 51.507 240.952 52.0553ZM256.267 65.6804C254.127 65.6804 252.064 65.6298 249.976 65.6804C247.81 65.7311 246.263 67.2506 246.16 69.226C246.108 71.4293 247.681 73.3794 249.769 73.5567C251.987 73.7339 254.101 73.3034 256.344 72.8475C256.341 70.5232 256.395 67.8548 256.267 65.6804Z" fill="#8794BA"/>
<path d="M106.365 82.5214C96.3355 82.5214 88.9101 76.342 87.2858 66.6423C86.5896 62.4889 86.667 58.3355 87.9561 54.2834C90.9469 44.6343 99.3521 40.1263 108.84 41.1647C119.669 42.3043 124.8 50.2566 125.805 58.2848C126.244 61.5771 126.089 64.8188 125.29 68.0352C123.047 77.1271 115.956 82.5214 106.365 82.5214ZM113.997 61.7038C113.868 58.69 113.765 55.6509 112.192 52.9411C109.639 48.4331 103.323 48.3825 100.719 52.8145C100.229 53.6249 99.8678 54.5366 99.6099 55.3977C98.6302 58.842 98.5528 62.4129 99.1716 65.8825C99.4552 67.63 100.1 69.3268 100.925 70.897C102.034 73.0243 104.045 74.012 106.494 73.9867C109.433 73.9614 111.315 72.4672 112.476 69.9599C113.765 67.402 113.894 64.5402 113.997 61.7038Z" fill="#8794BA"/>
<path d="M188.303 64.8443C180.903 64.6923 173.504 64.5657 166.078 64.3631C166.078 70.0614 169.817 73.8855 175.334 73.5563C179.476 73.2205 183.404 72.3949 186.911 71.7328C187.194 74.1641 187.53 76.4687 187.813 78.7987C184.307 80.5968 180.697 81.6352 176.984 82.1923C174.071 82.6482 171.209 82.9268 168.296 82.3696C162.469 81.2806 158.395 77.8363 156.126 72.5179C153.187 65.5787 153.135 58.4622 155.894 51.523C159.065 43.4442 166.465 40.4051 174.458 41.1142C175.695 41.2408 176.933 41.3928 178.119 41.7473C184.152 43.3682 187.633 47.4456 188.922 53.3211C189.665 57.266 190.086 61.6219 188.303 64.8443ZM177.758 56.8161C177.732 54.5368 177.036 52.5614 175.902 51.2191C173.89 48.8638 169.533 48.9398 167.703 51.4217C166.542 52.9919 166.233 54.8153 166.156 56.8414C170.1 56.8161 173.865 56.8161 177.758 56.8161Z" fill="#8794BA"/>
<path d="M142.59 81.7113H130.833V41.9501C133.463 41.6462 136.144 41.3169 138.903 41.013C139.625 42.102 140.347 43.2164 141.146 44.4067C145.702 41.6932 149.395 40.7319 153.909 40C153.393 43.7988 152.903 47.3951 152.387 50.9153C149.036 51.3712 145.864 51.8017 142.59 52.2323V81.7113Z" fill="#8794BA"/>
<path d="M212.694 95.0071C211.817 98.2488 210.94 101.516 210.09 104.808C208.672 104.808 207.357 104.808 205.913 104.808C205.01 101.516 204.108 98.2488 203.206 94.9565C203.154 94.9565 203.051 94.9564 202.999 94.9818C202.845 98.2741 202.741 101.566 202.561 105.011C201.452 105.011 200.344 105.011 199.08 105.011C199.287 99.9962 199.519 94.9311 199.725 89.79C201.555 89.79 203.309 89.79 205.242 89.79C206.145 93.2596 207.047 96.8052 207.975 100.351C208.053 100.351 208.156 100.376 208.233 100.376C209.136 96.9065 210.038 93.3609 210.966 89.79C212.719 89.79 214.395 89.79 216.406 89.79C216.613 94.8298 216.845 99.9456 217.051 105.087C215.813 105.087 214.756 105.087 213.519 105.087C213.364 101.718 213.235 98.3754 213.055 95.0071C212.848 95.0071 212.797 95.0071 212.694 95.0071Z" fill="#8794BA"/>
<path d="M173.632 93.9185V88.4229H176.855V104.884C174.922 105.391 174.922 105.391 174.071 104.91C168.027 106.364 165.63 101.869 166.955 96.9575C167.287 95.6691 169.765 93.5386 172.498 93.7665C173.104 93.8742 173.091 93.8678 173.632 93.9185ZM173.736 102.479V99.4648V96.5777C171.054 95.8685 170.074 96.5523 169.971 98.9836C169.946 99.4141 169.971 99.8193 169.997 100.25C170.152 102.656 170.977 103.188 173.736 102.479Z" fill="#8794BA"/>
<path d="M81.201 105.416V110H77.9524V93.9943C78.9064 93.7158 79.8861 93.2599 80.7885 94.2223C85.0942 92.6014 87.724 94.6528 88.2139 97.3627C88.3428 98.7302 88.3428 100.224 88.1366 101.592C87.7756 102.96 86.9763 104.074 85.5841 104.656C84.2949 105.264 82.748 105.29 81.201 105.416ZM81.2268 102.504C82.5159 102.63 83.6246 102.808 84.4239 101.592C85.1716 100.326 85.0684 97.7679 84.166 96.8055C83.2378 95.8178 82.2581 96.4509 81.2268 96.5269V102.504Z" fill="#8794BA"/>
<path d="M126.888 94.2221C127.636 94.0194 128.203 93.7915 128.745 93.7155C131.529 93.209 133.85 94.8805 134.03 97.6917C134.159 100.123 134.056 102.529 134.056 105.087C132.896 105.087 131.787 105.087 130.601 105.087C130.601 102.883 130.601 100.807 130.601 98.7047C130.601 96.2481 129.879 95.7416 127.327 96.6027C127.327 99.3379 127.327 102.149 127.327 105.112C126.166 105.112 125.058 105.112 123.897 105.112C123.897 101.415 123.897 97.793 123.897 94.0701C124.929 93.8422 125.986 93.209 126.888 94.2221Z" fill="#8794BA"/>
<path d="M157.699 102.428C158.06 103.086 158.421 103.744 158.833 104.479C157.183 105.163 155.791 106.024 154.27 104.631C153.625 104.833 153.084 105.112 152.465 105.264C149.758 105.948 147.437 104.15 147.644 101.566C147.798 99.7937 149.345 98.4767 151.485 98.4514C152.207 98.4261 152.955 98.5021 153.702 98.5274C154.089 96.552 153.522 95.9948 151.691 96.3241C151.047 96.4507 150.402 96.5773 149.629 96.7546C149.397 96.1468 149.113 95.5896 148.804 94.7792C150.66 94.1461 152.31 93.2597 154.295 93.8168C156.281 94.3487 157.286 95.539 157.338 97.565C157.364 99.1859 157.338 100.807 157.338 102.478C157.467 102.428 157.57 102.428 157.699 102.428ZM153.831 100.655C152.877 100.68 151.923 100.3 151.305 101.187C151.124 101.44 151.15 102.073 151.356 102.326C152.052 103.162 152.955 102.833 153.831 102.58C153.831 101.946 153.831 101.339 153.831 100.655Z" fill="#8794BA"/>
<path d="M120.623 102.453C120.984 103.111 121.345 103.77 121.757 104.479C120.107 105.239 118.689 105.973 117.194 104.631C116.601 104.833 116.111 105.087 115.544 105.239C114.177 105.593 112.862 105.492 111.779 104.504C110.697 103.542 110.31 102.301 110.774 100.933C111.29 99.3378 112.579 98.6286 114.177 98.4767C115.028 98.4007 115.853 98.4767 116.704 98.4767C116.988 96.6786 116.446 96.0454 114.77 96.3493C114.074 96.476 113.404 96.6279 112.604 96.8305C112.347 96.2227 112.089 95.6149 111.728 94.8551C113.636 94.222 115.389 93.2849 117.4 93.9181C119.282 94.5259 120.236 95.6655 120.288 97.6156C120.314 99.2365 120.288 100.908 120.288 102.529C120.391 102.453 120.494 102.453 120.623 102.453ZM116.781 100.705C115.827 100.655 114.873 100.325 114.229 101.187C114.048 101.44 114.074 102.073 114.255 102.326C114.925 103.213 115.853 102.782 116.781 102.681C116.781 101.972 116.781 101.364 116.781 100.705Z" fill="#8794BA"/>
<path d="M43.0684 104.758C41.7534 104.986 40.7737 105.34 39.7939 105.365C38.0407 105.416 36.5711 104.074 36.3133 102.428C36.0554 100.781 37.0352 99.11 38.8142 98.6794C39.9744 98.4262 41.212 98.4768 42.4754 98.4008C42.7332 96.6027 42.1917 95.9696 40.4901 96.2988C39.7939 96.4254 39.1236 96.5774 38.3243 96.78C38.0665 96.1469 37.8087 95.5644 37.4477 94.8046C39.3298 94.1714 40.9799 93.2851 42.9652 93.8422C45.0021 94.3741 45.956 95.5897 45.9818 97.6157C46.0076 98.4768 45.9818 99.2872 45.9818 100.148C45.9818 100.959 45.9818 101.719 45.9818 102.478C47.0647 103.111 47.0647 103.111 47.2194 104.682C45.7756 105.188 44.4091 105.999 43.0684 104.758ZM42.5269 102.706C42.5269 101.997 42.5269 101.364 42.5269 100.655C41.8566 100.655 41.2378 100.503 40.7479 100.68C40.3612 100.832 39.8713 101.339 39.8197 101.719C39.6908 102.377 40.1807 102.782 40.8768 102.808C41.4183 102.833 41.9339 102.732 42.5269 102.706Z" fill="#8794BA"/>
<path d="M272.149 99.4648C272.226 104.353 268.152 106.303 264.465 105.011C261.939 104.125 260.572 101.162 261.191 98.1479C261.81 95.1342 264.182 93.3614 267.25 93.64C270.241 93.9185 272.123 96.1725 272.149 99.4648ZM265.007 101.997C265.703 103.39 267.508 103.365 268.204 101.972C268.952 100.427 268.926 98.8064 268.255 97.2108C267.998 96.5271 267.405 96.1472 266.631 96.1219C265.78 96.1219 265.11 96.3498 264.878 97.2362C264.179 98.8292 264.234 100.534 265.007 101.997Z" fill="#8794BA"/>
<path d="M100.332 100.3C98.2951 100.3 96.2325 100.3 94.144 100.3C94.3761 102.175 95.098 102.858 96.8255 102.808C97.8052 102.782 98.8107 102.58 99.971 102.453C100.048 103.112 100.151 103.618 100.255 104.251C98.424 105.29 96.4387 105.619 94.4792 105.29C92.8807 105.036 91.8494 103.922 91.2306 102.453C90.4829 100.579 90.4571 98.6289 91.1532 96.7548C92.133 94.0956 95.098 92.9053 97.9083 93.9184C100.229 94.8048 101.337 97.6412 100.332 100.3ZM97.2638 97.9958C97.0317 96.4509 96.6192 96.0204 95.6137 96.0964C94.6597 96.147 94.3245 96.5776 94.2472 97.9958C95.2785 97.9958 96.284 97.9958 97.2638 97.9958Z" fill="#8794BA"/>
<path d="M64.8547 100.3C62.7405 100.3 60.7036 100.3 58.6668 100.3C58.7957 102.073 59.5176 102.833 61.1162 102.807C62.1733 102.782 63.2304 102.605 64.4164 102.453C64.5453 103.111 64.6226 103.719 64.7 104.276C62.921 105.213 61.1677 105.542 59.2856 105.315C57.5066 105.137 56.3463 104.023 55.676 102.478C54.9025 100.68 54.8509 98.7805 55.4955 96.9065C56.3979 94.1966 59.234 92.905 62.1475 93.8421C64.6226 94.7031 65.7829 97.3623 64.8547 100.3ZM58.5895 97.9195C59.7497 97.9195 60.7552 97.9195 61.8123 97.9195C61.3224 96.324 60.9873 96.0454 60.0333 96.1214C58.9246 96.2227 58.7184 97.0078 58.5895 97.9195Z" fill="#8794BA"/>
<path d="M188.896 102.453C188.973 103.111 189.051 103.618 189.128 104.276C187.246 105.315 185.235 105.72 183.224 105.188C182.296 104.96 181.342 104.2 180.697 103.39C179.176 101.516 179.228 97.7678 180.542 95.7164C181.883 93.6651 184.925 92.9559 187.272 94.1462C189.283 95.1846 190.211 97.9197 189.18 100.275C187.169 100.275 185.08 100.275 182.966 100.275C183.275 102.25 183.972 102.858 185.879 102.782C186.833 102.732 187.762 102.58 188.896 102.453ZM183.069 97.9957C184.049 97.9957 185.054 97.9957 186.086 97.9957C185.957 96.5522 185.596 96.1216 184.668 96.0963C183.662 96.071 183.275 96.5015 183.069 97.9957Z" fill="#8794BA"/>
<path d="M228.628 102.478C228.705 103.112 228.782 103.643 228.834 104.277C227.003 105.315 225.018 105.593 223.059 105.264C221.924 105.087 220.996 104.378 220.351 103.415C218.959 101.389 218.933 97.7425 220.274 95.7164C221.64 93.6397 224.631 92.9812 227.003 94.1715C229.04 95.2099 229.917 97.9957 228.886 100.275C226.9 100.275 224.838 100.275 222.827 100.275C222.827 101.947 223.548 102.808 225.121 102.808C226.256 102.808 227.364 102.605 228.628 102.478ZM225.817 97.9957C225.663 96.5522 225.302 96.1216 224.373 96.0963C223.368 96.071 222.981 96.5268 222.801 97.9957C223.858 97.9957 224.812 97.9957 225.817 97.9957Z" fill="#8794BA"/>
<path d="M234.016 105.112C232.778 105.112 231.696 105.112 230.277 105.112C231.721 103.086 233.036 101.288 234.403 99.4142C233.088 97.6414 231.85 95.8939 230.432 93.9438C231.876 93.9438 232.985 93.9438 234.248 93.9438C234.97 94.9315 235.718 96.0205 236.568 97.2362C237.419 96.0712 238.167 95.0328 238.915 93.9438C240.049 93.9438 241.235 93.9438 242.653 93.9438C241.338 95.742 240.152 97.3881 238.837 99.2622C240.307 101.111 241.802 103.061 243.427 105.112C242.034 105.112 240.9 105.112 239.585 105.112C238.683 103.947 237.755 102.681 236.672 101.288C235.821 102.631 234.97 103.795 234.016 105.112Z" fill="#8794BA"/>
<path d="M34.5857 102.199C34.5857 103.263 34.5857 104.073 34.5857 105.061C31.7496 105.061 28.9135 105.061 26.0258 105.061C26.0258 99.9961 26.0258 94.8803 26.0258 89.7393C27.1603 89.7393 28.2431 89.7393 29.4034 89.7393C29.4034 93.8926 29.4034 97.9954 29.4034 102.199C31.1566 102.199 32.8325 102.199 34.5857 102.199Z" fill="#8794BA"/>
<path d="M141.791 96.1218C140.012 96.1218 138.619 96.1218 137.15 96.1218C137.15 95.3874 137.15 94.7036 137.15 93.9438C139.934 93.9438 142.719 93.9438 145.478 93.9438C145.839 95.1595 145.632 96.1472 144.833 97.1095C143.415 98.8317 142.1 100.63 140.527 102.656C142.358 102.656 143.905 102.656 145.555 102.656C145.555 103.568 145.555 104.277 145.555 105.087C142.616 105.087 139.754 105.087 136.789 105.087C136.505 103.821 136.608 102.782 137.485 101.719C138.929 100.022 140.192 98.1732 141.791 96.1218Z" fill="#8794BA"/>
<path d="M67.6136 102.276C69.835 102.935 74.3675 102.628 70.9911 101.009C70.3208 100.705 69.5731 100.478 68.9027 100.148C67.5362 99.4898 66.969 98.4008 67.0721 96.932C67.1753 95.4631 68.0777 94.4247 69.5989 93.9689C71.249 93.4624 72.8733 93.6903 74.6007 94.3488C74.5234 95.0072 74.3945 95.6657 74.3171 96.3748C72.3527 96.4593 68.1749 96.5986 71.4037 97.869C72.0998 98.1476 72.8217 98.3755 73.5179 98.7047C74.7039 99.2366 75.5289 100.098 75.5289 101.465C75.5289 102.985 74.8844 104.124 73.4921 104.808C71.4295 105.771 69.4184 105.416 67.2784 104.732C67.3815 103.871 67.5105 103.111 67.6136 102.276Z" fill="#8794BA"/>
<path d="M259.464 102.605C259.541 103.188 259.644 103.669 259.747 104.403C258.613 104.707 257.504 105.163 256.37 105.29C253.43 105.568 251.394 103.922 251.007 101.06C251.007 100.934 250.981 100.858 250.981 100.756C250.388 95.7165 253.482 92.9053 258.561 93.8424C258.793 93.893 259.077 93.9183 259.464 94.0196C259.335 94.7541 259.232 95.3872 259.103 96.1217C258.149 96.1217 257.298 96.147 256.473 96.1217C253.597 97.1272 253.565 102.807 256.885 102.858C257.659 102.833 258.458 102.681 259.464 102.605Z" fill="#8794BA"/>
<path d="M106.7 96.9067C106.7 99.6672 106.7 102.377 106.7 105.112C105.566 105.112 104.56 105.112 103.478 105.112C103.478 101.364 103.478 97.7931 103.478 93.9942C104.122 93.8676 104.792 93.741 105.463 93.6143C105.772 93.8929 106.107 94.1968 106.339 94.4247C107.474 94.0449 108.583 93.6903 109.923 93.2598C109.769 94.4247 109.665 95.3618 109.485 96.4002C108.66 96.5015 107.783 96.7041 106.7 96.9067Z" fill="#8794BA"/>
<path d="M245.361 96.9318C244.819 96.7292 244.433 96.552 243.994 96.4C243.994 95.7669 243.994 95.1337 243.994 94.4246C245.515 94.3486 246.933 94.2473 248.377 94.146C248.429 94.4246 248.506 94.6525 248.506 94.8551C248.506 98.2234 248.506 101.592 248.506 105.112C247.449 105.112 246.444 105.112 245.335 105.112C245.361 102.402 245.361 99.6923 245.361 96.9318Z" fill="#8794BA"/>
<path d="M225.998 93.2347C225.121 93.2347 224.348 93.2347 223.42 93.2347C223.909 91.9431 224.322 90.7781 224.786 89.5625C225.792 89.5625 226.823 89.5625 228.035 89.5625C227.313 90.8541 226.642 92.0444 225.998 93.2347Z" fill="#8794BA"/>
<path d="M246.701 89.4863C247.681 89.4863 248.455 90.2208 248.506 91.1325C248.532 92.0949 247.681 92.956 246.701 92.956C245.696 92.956 244.871 92.0949 244.922 91.1325C244.974 90.1701 245.747 89.4863 246.701 89.4863Z" fill="#8794BA"/>
</svg>
