<svg width="189" height="34" viewBox="0 0 189 34" fill="none" xmlns="http://www.w3.org/2000/svg">
<path d="M42.5518 20.335C42.6885 21.3213 42.957 22.0586 43.3574 22.5469C44.0898 23.4355 45.3447 23.8799 47.1221 23.8799C48.1865 23.8799 49.0508 23.7627 49.7148 23.5283C50.9746 23.0791 51.6045 22.2441 51.6045 21.0234C51.6045 20.3105 51.292 19.7588 50.667 19.3682C50.042 18.9873 49.0605 18.6504 47.7227 18.3574L45.4375 17.8447C43.1914 17.3369 41.6387 16.7852 40.7793 16.1895C39.3242 15.1934 38.5967 13.6357 38.5967 11.5166C38.5967 9.58301 39.2998 7.97656 40.7061 6.69727C42.1123 5.41797 44.1777 4.77832 46.9023 4.77832C49.1777 4.77832 51.1162 5.38379 52.7178 6.59473C54.3291 7.7959 55.1738 9.54395 55.252 11.8389H50.916C50.8379 10.54 50.2715 9.61719 49.2168 9.07031C48.5137 8.70898 47.6396 8.52832 46.5947 8.52832C45.4326 8.52832 44.5049 8.7627 43.8115 9.23145C43.1182 9.7002 42.7715 10.3545 42.7715 11.1943C42.7715 11.9658 43.1133 12.542 43.7969 12.9229C44.2363 13.1768 45.1738 13.4746 46.6094 13.8164L50.3301 14.71C51.9609 15.1006 53.1914 15.623 54.0215 16.2773C55.3105 17.293 55.9551 18.7627 55.9551 20.6865C55.9551 22.6592 55.1982 24.2998 53.6846 25.6084C52.1807 26.9072 50.0518 27.5566 47.2979 27.5566C44.4854 27.5566 42.2734 26.917 40.6621 25.6377C39.0508 24.3486 38.2451 22.5811 38.2451 20.335H42.5518ZM65.2568 14.0508C64.29 14.0508 63.5381 14.3535 63.001 14.959C62.4736 15.5645 62.1416 16.3848 62.0049 17.4199H68.4941C68.4258 16.3164 68.0889 15.4814 67.4834 14.915C66.8877 14.3389 66.1455 14.0508 65.2568 14.0508ZM65.2568 10.6084C66.585 10.6084 67.7812 10.8574 68.8457 11.3555C69.9102 11.8535 70.7891 12.6396 71.4824 13.7139C72.1074 14.6611 72.5127 15.7598 72.6982 17.0098C72.8057 17.7422 72.8496 18.7969 72.8301 20.1738H61.9023C61.9609 21.7754 62.4639 22.8984 63.4111 23.543C63.9873 23.9434 64.6807 24.1436 65.4912 24.1436C66.3506 24.1436 67.0488 23.8994 67.5859 23.4111C67.8789 23.1475 68.1377 22.7812 68.3623 22.3125H72.625C72.5176 23.2598 72.0244 24.2217 71.1455 25.1982C69.7783 26.751 67.8643 27.5273 65.4033 27.5273C63.3721 27.5273 61.5801 26.873 60.0273 25.5645C58.4746 24.2559 57.6982 22.127 57.6982 19.1777C57.6982 16.4141 58.3965 14.2949 59.793 12.8203C61.1992 11.3457 63.0205 10.6084 65.2568 10.6084ZM79.9199 27H75.7451V5.4082H79.9199V27ZM90.3057 14.0508C89.3389 14.0508 88.5869 14.3535 88.0498 14.959C87.5225 15.5645 87.1904 16.3848 87.0537 17.4199H93.543C93.4746 16.3164 93.1377 15.4814 92.5322 14.915C91.9365 14.3389 91.1943 14.0508 90.3057 14.0508ZM90.3057 10.6084C91.6338 10.6084 92.8301 10.8574 93.8945 11.3555C94.959 11.8535 95.8379 12.6396 96.5312 13.7139C97.1562 14.6611 97.5615 15.7598 97.7471 17.0098C97.8545 17.7422 97.8984 18.7969 97.8789 20.1738H86.9512C87.0098 21.7754 87.5127 22.8984 88.46 23.543C89.0361 23.9434 89.7295 24.1436 90.54 24.1436C91.3994 24.1436 92.0977 23.8994 92.6348 23.4111C92.9277 23.1475 93.1865 22.7812 93.4111 22.3125H97.6738C97.5664 23.2598 97.0732 24.2217 96.1943 25.1982C94.8271 26.751 92.9131 27.5273 90.4521 27.5273C88.4209 27.5273 86.6289 26.873 85.0762 25.5645C83.5234 24.2559 82.7471 22.127 82.7471 19.1777C82.7471 16.4141 83.4453 14.2949 84.8418 12.8203C86.248 11.3457 88.0693 10.6084 90.3057 10.6084ZM110.242 16.7607C110.164 16.165 109.964 15.6279 109.642 15.1494C109.173 14.5049 108.445 14.1826 107.459 14.1826C106.053 14.1826 105.091 14.8809 104.573 16.2773C104.3 17.0195 104.163 18.0059 104.163 19.2363C104.163 20.4082 104.3 21.3506 104.573 22.0635C105.071 23.3916 106.009 24.0557 107.386 24.0557C108.362 24.0557 109.056 23.792 109.466 23.2646C109.876 22.7373 110.125 22.0537 110.213 21.2139H114.476C114.378 22.4834 113.919 23.6846 113.099 24.8174C111.79 26.6436 109.852 27.5566 107.283 27.5566C104.715 27.5566 102.825 26.7949 101.614 25.2715C100.403 23.748 99.7979 21.7705 99.7979 19.3389C99.7979 16.5947 100.467 14.4609 101.805 12.9375C103.143 11.4141 104.988 10.6523 107.342 10.6523C109.344 10.6523 110.979 11.1016 112.249 12C113.528 12.8984 114.285 14.4854 114.52 16.7607H110.242ZM115.765 14.1533V11.1797H117.991V6.72656H122.122V11.1797H124.715V14.1533H122.122V22.5908C122.122 23.2451 122.205 23.6553 122.371 23.8213C122.537 23.9775 123.045 24.0557 123.895 24.0557C124.021 24.0557 124.153 24.0557 124.29 24.0557C124.437 24.0459 124.578 24.0361 124.715 24.0264V27.1465L122.737 27.2197C120.765 27.2881 119.417 26.9463 118.694 26.1943C118.226 25.7158 117.991 24.9785 117.991 23.9824V14.1533H115.765ZM134.559 24.0557C135.779 24.0557 136.717 23.6211 137.371 22.752C138.025 21.8828 138.353 20.6475 138.353 19.0459C138.353 17.4443 138.025 16.2139 137.371 15.3545C136.717 14.4854 135.779 14.0508 134.559 14.0508C133.338 14.0508 132.396 14.4854 131.731 15.3545C131.077 16.2139 130.75 17.4443 130.75 19.0459C130.75 20.6475 131.077 21.8828 131.731 22.752C132.396 23.6211 133.338 24.0557 134.559 24.0557ZM142.732 19.0459C142.732 21.3896 142.059 23.3965 140.711 25.0664C139.363 26.7266 137.317 27.5566 134.573 27.5566C131.829 27.5566 129.783 26.7266 128.436 25.0664C127.088 23.3965 126.414 21.3896 126.414 19.0459C126.414 16.7412 127.088 14.7441 128.436 13.0547C129.783 11.3652 131.829 10.5205 134.573 10.5205C137.317 10.5205 139.363 11.3652 140.711 13.0547C142.059 14.7441 142.732 16.7412 142.732 19.0459ZM154.407 10.6523C154.485 10.6523 154.549 10.6572 154.598 10.667C154.656 10.667 154.778 10.6719 154.964 10.6816V14.959C154.7 14.9297 154.466 14.9102 154.261 14.9004C154.056 14.8906 153.89 14.8857 153.763 14.8857C152.083 14.8857 150.955 15.4326 150.379 16.5264C150.057 17.1416 149.896 18.0889 149.896 19.3682V27H145.691V11.0332H149.676V13.8164C150.32 12.752 150.882 12.0244 151.36 11.6338C152.142 10.9795 153.157 10.6523 154.407 10.6523ZM166.229 19.2363C165.965 19.4023 165.696 19.5391 165.423 19.6465C165.159 19.7441 164.793 19.8369 164.324 19.9248L163.387 20.1006C162.508 20.2568 161.878 20.4473 161.497 20.6719C160.853 21.0527 160.53 21.6436 160.53 22.4443C160.53 23.1572 160.726 23.6748 161.116 23.9971C161.517 24.3096 162 24.4658 162.566 24.4658C163.465 24.4658 164.29 24.2021 165.042 23.6748C165.804 23.1475 166.199 22.1855 166.229 20.7891V19.2363ZM163.694 17.2881C164.466 17.1904 165.018 17.0684 165.35 16.9219C165.945 16.668 166.243 16.2725 166.243 15.7354C166.243 15.0811 166.014 14.6318 165.555 14.3877C165.105 14.1338 164.441 14.0068 163.562 14.0068C162.576 14.0068 161.878 14.251 161.468 14.7393C161.175 15.1006 160.979 15.5889 160.882 16.2041H156.854C156.941 14.8076 157.332 13.6602 158.025 12.7617C159.129 11.3555 161.023 10.6523 163.709 10.6523C165.457 10.6523 167.01 10.999 168.367 11.6924C169.725 12.3857 170.403 13.6943 170.403 15.6182V22.9424C170.403 23.4502 170.413 24.0654 170.433 24.7881C170.462 25.335 170.545 25.7061 170.682 25.9014C170.818 26.0967 171.023 26.2578 171.297 26.3848V27H166.756C166.629 26.6777 166.541 26.375 166.492 26.0918C166.443 25.8086 166.404 25.4863 166.375 25.125C165.799 25.75 165.135 26.2822 164.383 26.7217C163.484 27.2393 162.469 27.498 161.336 27.498C159.891 27.498 158.694 27.0879 157.747 26.2676C156.81 25.4375 156.341 24.2656 156.341 22.752C156.341 20.7891 157.098 19.3682 158.611 18.4893C159.441 18.0107 160.662 17.6689 162.273 17.4639L163.694 17.2881ZM178.387 27H174.212V5.4082H178.387V27Z" fill="#F2F2F2"/>
<path d="M182.4 22.6348H186.839V27H182.4V22.6348Z" fill="#8B8ADA"/>
<path d="M27.3812 8.5296C24.6786 4.58665 20.1414 2 15 2C6.71573 2 0 8.71572 0 17C0 18.2052 0.14215 19.3773 0.410585 20.5003L8.04917 12.8617C8.78141 12.1294 9.96859 12.1294 10.7008 12.8617L16.875 19.0358L27.3812 8.5296Z" fill="#8794BA"/>
<path d="M29.1641 12.0501L18.2008 23.0133C17.4686 23.7456 16.2814 23.7456 15.5492 23.0133L9.375 16.8392L1.90063 24.3135C4.46662 28.8997 9.37125 32 15 32C23.2843 32 30 25.2843 30 17C30 15.2655 29.7056 13.5998 29.1641 12.0501Z" fill="#8794BA"/>
</svg>
