<svg width="300" height="150" viewBox="0 0 300 150" fill="none" xmlns="http://www.w3.org/2000/svg">
<path fill-rule="evenodd" clip-rule="evenodd" d="M110.004 25H189.996C195.493 25 200 29.4836 200 34.9543V114.712C200 120.183 195.493 124.667 189.996 124.667H110.004C104.506 124.667 100 120.183 100 114.713V34.9543C100 29.4836 104.506 25 110.004 25Z" fill="#8794BA"/>
<path fill-rule="evenodd" clip-rule="evenodd" d="M109.963 120.554L104.506 95.9155L111.368 95.9977L113.724 111.753L116.204 95.9977H123.067L117.321 120.554H109.963Z" fill="white"/>
<path fill-rule="evenodd" clip-rule="evenodd" d="M130.672 113.933H139.107V120.595H124.431V95.9155H139.107V102.58H130.672V105.212H139.107V111.506H130.672V113.933Z" fill="white"/>
<path fill-rule="evenodd" clip-rule="evenodd" d="M149.855 95.9155C151.054 95.9155 151.88 96.0389 152.335 96.0794C159.238 96.5319 159.28 106.733 155.228 109.366C154.939 109.531 154.567 109.654 154.07 109.694C156.055 110.106 157.419 114.384 159.155 120.595L151.92 120.595C151.052 117.099 150.432 114.713 149.854 113.439V106.775C150.06 106.775 150.267 106.734 150.515 106.734C151.63 106.652 152.127 102.497 150.39 102.003C150.184 101.963 150.019 101.963 149.853 101.921V95.9156H149.854L149.855 95.9155ZM141.669 120.596V95.9161H149.606C149.689 95.9161 149.771 95.9161 149.855 95.9161V101.922C149.524 101.922 149.193 101.963 148.821 101.963L148.16 101.922V106.775C148.739 106.775 149.276 106.775 149.855 106.775L149.855 113.438C149.73 113.15 149.606 112.945 149.482 112.739H147.995V120.595H141.669L141.669 120.596Z" fill="white"/>
<path fill-rule="evenodd" clip-rule="evenodd" d="M169.573 95.9976C177.345 96.0388 178.833 101.633 178.792 107.926C178.751 113.315 177.635 119.362 171.062 120.554C170.524 120.678 170.028 120.596 169.573 120.596V113.397C171.806 112.739 172.261 110.27 172.261 107.885C172.261 105.623 171.434 103.813 169.573 103.196V95.9976V95.9976ZM160.395 95.9976H169.49C169.49 95.9976 169.531 95.9976 169.573 95.9976V103.196C169.036 103.032 168.374 102.991 167.63 103.032H166.886V113.521C167.176 113.521 167.465 113.521 167.754 113.521C168.457 113.603 169.077 113.521 169.573 113.397V120.596C169.408 120.554 169.243 120.554 169.077 120.554L160.396 120.555V95.9976H160.395L160.395 95.9976Z" fill="white"/>
<path fill-rule="evenodd" clip-rule="evenodd" d="M186.771 113.933H195.162V120.595H180.488V95.9155H195.162V102.58H186.771V105.212H195.162V111.506H186.771V113.933Z" fill="white"/>
<path fill-rule="evenodd" clip-rule="evenodd" d="M111.533 72.8808C119.031 72.1471 126.487 71.1698 133.943 70.0714L130.316 62.7319C126.884 63.0252 114.372 68.7423 111.533 72.8808Z" fill="#9AA5C7"/>
<path fill-rule="evenodd" clip-rule="evenodd" d="M111.698 73.4168C116.377 77.7461 129.163 79.9645 138.328 78.9498L134.125 70.4443C126.636 71.4219 119.147 72.4393 111.698 73.4168Z" fill="#9AA5C7"/>
<path fill-rule="evenodd" clip-rule="evenodd" d="M169.424 60.6571L176.271 46.5956L164.902 43.9214L160.603 53.7523L157.648 60.5353C157.668 60.537 157.689 60.5372 157.709 60.5392C161.57 60.6997 165.468 60.7701 169.424 60.6569V60.6571Z" fill="white"/>
<path fill-rule="evenodd" clip-rule="evenodd" d="M155.261 60.3776C156.432 57.1064 157.495 53.6631 157.09 49.3109C157.049 47.7479 156.677 46.9253 156.222 46.3081C155.808 45.8146 155.519 45.2792 155.353 44.745C155.229 44.0457 155.023 43.5111 154.858 43.0997C154.568 42.4002 154.651 41.9067 154.692 41.5365C154.899 40.4671 155.23 39.4798 155.685 38.575C156.429 38.7802 157.603 38.6822 158.124 38.2459C163.043 37.6701 169.038 38.1223 174.04 39.8502C174.37 40.0148 174.66 40.1793 174.908 40.4673C175.115 40.8787 175.734 40.7964 175.652 40.1382C175.694 35.5729 172.428 32.0349 168.377 30.2668C166.227 29.567 163.498 29.0738 161.018 28.9498C158.704 28.8265 155.437 28.8264 154.57 29.567C151.056 29.2379 148.493 30.76 146.88 34.0916C144.896 38.6165 144.276 41.5371 144.358 43.7176C139.907 48.8838 141.291 54.6228 143.51 60.4864C147.399 60.1713 151.311 60.1571 155.261 60.3776Z" fill="#5E6673"/>
<path fill-rule="evenodd" clip-rule="evenodd" d="M169.424 60.6571C165.469 60.7709 161.57 60.7005 157.709 60.54C157.689 60.5384 157.669 60.538 157.648 60.5361C156.85 60.4731 156.056 60.4217 155.261 60.3777C151.311 60.1573 147.399 60.1716 143.509 60.485C142.709 60.5496 141.91 60.6227 141.112 60.7134L144.528 68.5764C153.352 67.267 161.686 65.7942 169.244 64.0363C176.519 62.5965 183.01 60.6639 188.549 58.3599C181.983 59.8425 175.634 60.4784 169.424 60.6571Z" fill="#9AA5C7"/>
<path fill-rule="evenodd" clip-rule="evenodd" d="M160.148 66.1754C155.07 66.9969 149.827 67.9824 144.627 68.8045C144.619 68.8056 144.611 68.8064 144.604 68.8084C145.845 71.7699 147.197 74.7087 148.479 77.6704C148.502 77.6625 148.724 77.5767 148.747 77.5693C149.451 77.3418 149.883 77.2155 150.583 76.9883C154.975 75.564 159.321 74.1289 163.62 72.4709C172.124 69.1916 180.447 65.0387 188.589 58.3604C179.619 61.98 170.11 64.5305 160.148 66.1758V66.1754Z" fill="#9AA5C7"/>
<path fill-rule="evenodd" clip-rule="evenodd" d="M144.525 68.8331C144.533 68.832 144.541 68.8312 144.547 68.8292L144.448 68.6012L141.031 60.7382L133.735 43.9468L122.285 46.6617L130.237 62.7562L133.863 70.0959L134.046 70.4667L138.249 78.9722L144.112 90.8387H154.405L160.524 78.5402L163.541 72.4952C159.242 74.153 154.896 75.5883 150.504 77.0126L149.321 79.8148L148.507 77.6496L144.525 68.8331Z" fill="white"/>
<path fill-rule="evenodd" clip-rule="evenodd" d="M111.698 72.7162C129.722 70.7418 148.16 68.0269 167.547 64.3249C173.789 63.091 179.66 61.4455 183.918 60.1704C175.485 63.4199 164.075 66.0115 149.895 68.1916C138.857 69.9192 126.208 71.8113 111.822 73.4978C111.409 73.5389 111.367 72.7985 111.698 72.7162Z" fill="white"/>
<path fill-rule="evenodd" clip-rule="evenodd" d="M168.54 34.4625C169.036 34.0921 170.069 32.4468 170.441 31.7476C173.873 34.257 175.319 36.8895 175.071 39.5219C173.583 37.2184 171.516 35.3674 168.54 34.4625Z" fill="#5E6673"/>
<path fill-rule="evenodd" clip-rule="evenodd" d="M154.897 29.7322C156.386 29.0747 158.246 29.1563 160.396 29.1973C164.034 29.1973 168.416 30.1023 170.028 31.5421C169.573 32.8585 168.829 33.7224 167.961 34.2163C163.62 32.8589 159.445 32.8994 155.393 33.2701C155.393 32.118 155.27 30.8426 154.897 29.7322Z" fill="#9AA5C7"/>
<path fill-rule="evenodd" clip-rule="evenodd" d="M155.353 33.6801C155.395 33.5154 155.353 33.392 159.198 33.4333C162.464 33.4744 165.523 33.4744 168.582 34.8318C171.765 36.0248 173.709 37.6701 174.783 39.6856C171.89 38.5755 168.706 38.0812 165.441 37.7933C162.961 37.6289 160.48 37.6289 157.959 37.8346C157.587 37.8346 157.667 38.5618 155.685 38.1226C154.94 37.629 154.651 36.6419 154.94 35.2432C155.023 34.585 155.188 34.1736 155.353 33.6801V33.6801Z" fill="#9AA5C7"/>
<path fill-rule="evenodd" clip-rule="evenodd" d="M152.997 30.2662C153.535 29.9372 153.989 29.6903 154.279 29.731C154.568 29.7722 154.609 30.1013 154.692 30.4308C154.94 31.5409 154.981 32.9811 154.816 34.0912C154.32 35.8188 154.031 37.135 155.023 38.1229C155.353 38.3696 155.353 38.5755 155.106 38.9046C154.878 39.6346 153.745 41.5396 154.485 42.977C155.189 44.9919 155.106 46.1031 154.816 46.8847C154.609 48.0777 153.411 49.3527 151.096 49.2705C149.525 49.2293 147.334 48.6123 146.632 45.8564C146.094 43.5116 147.086 40.3444 148.698 36.8475C150.31 33.6393 151.757 31.2124 152.997 30.2662Z" fill="#9AA5C7"/>
<path fill-rule="evenodd" clip-rule="evenodd" d="M152.873 34.8319C153.576 34.8319 154.113 34.256 154.113 33.5978C154.113 32.898 153.575 32.3638 152.873 32.3638C152.212 32.3638 151.633 32.8986 151.633 33.5978C151.633 34.256 152.212 34.8319 152.873 34.8319Z" fill="#5E6673"/>
</svg>
